#N canvas 287 23 1570 1031 10;
#X floatatom -162 767 5 0 0 0 - - -;
#X floatatom 188 844 5 0 0 0 - - -;
#X obj 408 537 adc~;
#X obj 408 646 threshold~ 1 3000 0.1 1000;
#X msg -511 856 open S.wav \, 1;
#X msg -412 856 open S1.wav \, 1;
#X msg -307 854 open S2.wav \, 1;
#X msg -198 853 open S3.wav \, 1;
#X msg -98 852 open air.wav \, 1;
#X msg 8 851 open air2.wav \, 1;
#X msg -512 886 open air3.wav \, 1;
#X msg -403 888 open air3D.wav \, 1;
#X msg -287 890 open f02.wav \, 1;
#X msg -183 891 open f03.wav \, 1;
#X msg -79 891 open f04.wav \, 1;
#X msg -531 927 open alg[si].wav \, 1;
#X msg 45 927 open a00.wav \, 1;
#X msg 156 928 open a01.wav \, 1;
#X msg 270 929 open a02.wav \, 1;
#X msg 394 931 open a03.wav \, 1;
#X msg 508 931 open a04.wav \, 1;
#X msg 620 930 open a05.wav \, 1;
#X msg 436 1001 open a06.wav \, 1;
#X msg 542 1002 open a07.wav \, 1;
#X msg 650 1003 open a08.wav \, 1;
#X msg 643 1044 open a09.wav \, 1;
#X msg 520 1047 open a10.wav \, 1;
#X msg 400 1048 open a11.wav \, 1;
#X msg 575 974 open a12.wav \, 1;
#X msg 463 976 open a13.wav \, 1;
#X msg 356 975 open a14.wav \, 1;
#X msg 249 976 open a15.wav \, 1;
#X msg 141 976 open a16.wav \, 1;
#X msg 34 976 open a17.wav \, 1;
#X msg -92 976 open a18.wav \, 1;
#X msg -78 1019 open a19.wav \, 1;
#X msg 45 1019 open a20.wav \, 1;
#X msg 162 1020 open a21.wav \, 1;
#X msg 277 1021 open a22.wav \, 1;
#X msg 400 1022 open a23.wav \, 1;
#X msg 522 1023 open a24.wav \, 1;
#X msg 355 1093 open a25.wav \, 1;
#X msg 482 1094 open a26.wav \, 1;
#X msg 604 1092 open a27.wav \, 1;
#X msg 598 1123 open a28.wav \, 1;
#X msg 478 1130 open a29.wav \, 1;
#X msg 347 1132 open a30.wav \, 1;
#X msg 30 897 open síntesis.wav \, 1;
#X obj 188 823 random 30;
#X obj 188 869 sel 0 1 2 3 4 5 6 7 8 9 10 11 12 13 14 15 16 17 18 19
20 21 22 23 24 25 26 27 28 29;
#X obj 44 1098 readsf~ 30;
#X msg -387 931 open f1.wav \, 1;
#X msg -272 931 open Botana.wav \, 1;
#X msg -136 935 open alg[delay].wav \, 1;
#X obj -162 745 random 16;
#X obj -162 789 sel 0 1 2 3 4 5 6 7 8 9 10 11 12 13 14 15;
#X obj -218 1069 readsf~ 16;
#X obj -216 1135 dac~ 1 2;
#X obj 45 1135 dac~ 1 2;
#N canvas 0 22 450 300 (subpatch) 0;
#X array array1 100 float 3;
#A 0 -0.00100708 -0.000946045 -0.000946045 -0.000854492 -0.000946045
-0.000854492 -0.000823975 -0.000823975 -0.000854492 -0.000915527 -0.000946045
-0.00112915 -0.0010376 -0.00115967 -0.00119019 -0.00109863 -0.00109863
-0.00109863 -0.00115967 -0.00100708 -0.0010376 -0.00100708 -0.000762939
-0.000701904 -0.000610352 -0.000579834 -0.000518799 -0.000488281 -0.000457764
-0.000396729 -0.000427246 -0.000396729 -0.000274658 -0.000213623 -0.000396729
-0.000427246 -0.000335693 -0.000335693 -0.000335693 -0.000244141 -0.000335693
-0.000457764 -0.000335693 -0.000335693 -0.000518799 -0.000610352 -0.000640869
-0.000610352 -0.000579834 -0.000640869 -0.000671387 -0.000701904 -0.000671387
-0.000579834 -0.000549316 -0.000549316 -0.000518799 -0.000366211 -0.000274658
-0.000244141 -0.000335693 -0.000396729 -0.000335693 -0.000274658 -0.000274658
-0.000213623 -0.000244141 -0.00012207 -6.10352e-05 -9.15527e-05 3.05176e-05
0.00012207 0.000244141 0.000427246 0.000396729 0.000518799 0.000640869
0.000640869 0.000854492 0.000976562 0.00119019 0.0012207 0.00131226
0.00134277 0.00128174 0.00128174 0.00112915 0.00106812 0.00109863 0.000946045
0.000946045 0.000946045 0.000946045 0.000976562 0.000946045 0.000854492
0.000793457 0.00088501 0.000976562 0.00106812;
#X coords 0 1 99 -1 200 140 1;
#X restore 407 686 graph;
#X obj 470 617 tabwrite~ array1;
#X obj 484 582 metro 160;
#X obj -162 722 metro 230400;
#X obj 188 798 metro 96000;
#X msg 29 620 stop;
#X obj 29 542 bng 40 250 50 0 empty empty empty 17 7 0 10 -4034 -1
-1;
#X obj 408 609 *~ 7;
#N canvas 38 223 810 643 META 1;
#X obj 353 678 +~;
#X obj 352 630 +~;
#X obj 352 655 +~;
#X obj 476 613 +~;
#X obj 353 709 +~;
#X obj 354 732 +~;
#X obj 352 609 +~;
#X obj 583 755 osc~ 493.883;
#X obj 552 527 +~;
#X obj 463 525 +~;
#X obj 361 497 +~;
#X text 485 446 comment;
#X obj 323 527 +~;
#X obj 278 505 +~;
#X obj 323 558 +~;
#X obj 353 587 +~;
#X obj 499 742 osc~ 379.91;
#X obj 580 649 osc~ 292.238;
#X obj 480 645 osc~ 224.798;
#X obj 565 566 osc~ 172.922;
#X obj 477 566 osc~ 133.017;
#X obj 553 475 osc~ 102.321;
#X obj 463 454 osc~ 78.708;
#X obj 361 436 osc~ 60.544;
#X obj 278 436 osc~ 46.572;
#X obj 499 781 +~;
#X obj 580 703 +~;
#X obj 479 703 +~;
#X obj 566 615 +~;
#X obj 582 799 +~;
#X obj 293 469 osc~ 47;
#X obj 376 470 osc~ 61;
#X obj 568 497 osc~ 103;
#X obj 492 585 osc~ 134;
#X obj 580 589 osc~ 173;
#X obj 497 667 osc~ 225;
#X obj 596 672 osc~ 293;
#X obj 518 762 osc~ 380;
#X obj 596 775 osc~ 494;
#X obj 478 486 osc~ 79;
#X obj 354 825 output~;
#X text 424 832 Babel [493.883 hz/ 1.3];
#N canvas 876 177 375 255 startup 0;
#X obj 22 24 loadbang;
#X obj 22 48 bng 15 250 50 0 empty empty empty 0 -6 0 8 -262144 -1
-1;
#X obj 22 67 f \$0;
#X text 35 195 This subpatch loads initial;
#X text 31 219 values in number boxes.;
#X msg 22 91 \; \$1-pole 80;
#X connect 0 0 1 0;
#X connect 1 0 2 0;
#X connect 2 0 5 0;
#X restore 121 833 pd startup;
#N canvas 18 22 660 424 chord 0;
#X obj 87 97 -~ 0.5;
#X obj 87 146 clip~ -0.5 0.5;
#X obj 87 169 cos~;
#X obj 91 252 hip~ 5;
#X obj 91 315 outlet~;
#X obj 87 122 *~ 3;
#X obj 221 97 -~ 0.5;
#X obj 221 146 clip~ -0.5 0.5;
#X obj 221 169 cos~;
#X obj 221 122 *~ 3;
#X obj 356 100 -~ 0.5;
#X obj 356 149 clip~ -0.5 0.5;
#X obj 356 172 cos~;
#X obj 356 125 *~ 3;
#X obj 491 100 -~ 0.5;
#X obj 491 149 clip~ -0.5 0.5;
#X obj 491 172 cos~;
#X obj 491 125 *~ 3;
#X text 147 32 test sound for phaser;
#X obj 91 285 *~ 0.5;
#X obj 221 74 phasor~ 65;
#X obj 356 77 phasor~ 67;
#X obj 491 77 phasor~ 69;
#X obj 87 74 phasor~ 63;
#X connect 0 0 5 0;
#X connect 1 0 2 0;
#X connect 2 0 3 0;
#X connect 3 0 19 0;
#X connect 5 0 1 0;
#X connect 6 0 9 0;
#X connect 7 0 8 0;
#X connect 8 0 3 0;
#X connect 9 0 7 0;
#X connect 10 0 13 0;
#X connect 11 0 12 0;
#X connect 12 0 3 0;
#X connect 13 0 11 0;
#X connect 14 0 17 0;
#X connect 15 0 16 0;
#X connect 16 0 3 0;
#X connect 17 0 15 0;
#X connect 19 0 4 0;
#X connect 20 0 6 0;
#X connect 21 0 10 0;
#X connect 22 0 14 0;
#X connect 23 0 0 0;
#X restore -129 543 pd chord;
#X obj -130 805 output~;
#X obj -107 597 rpole~;
#X obj -107 572 rzero_rev~;
#X obj -107 646 rpole~;
#X obj -107 621 rzero_rev~;
#X obj -107 694 rpole~;
#X obj -107 669 rzero_rev~;
#X obj -107 743 rpole~;
#X obj -107 718 rzero_rev~;
#X obj -130 773 +~;
#X obj 48 689 phasor~ 0.3;
#X obj 48 721 expr~ 1 - 0.03 - 0.6*abs($v1-0.5)*abs($v1-0.5);
#X text -9 510 CORPUS INMATERIAL \, Miguel Oliveros et al. Madrid 2014
;
#X connect 0 0 4 0;
#X connect 1 0 2 0;
#X connect 2 0 0 0;
#X connect 3 0 6 1;
#X connect 4 0 5 0;
#X connect 5 0 40 0;
#X connect 5 0 40 1;
#X connect 6 0 1 0;
#X connect 7 0 29 0;
#X connect 8 0 15 1;
#X connect 9 0 14 1;
#X connect 10 0 12 1;
#X connect 12 0 14 0;
#X connect 13 0 12 0;
#X connect 14 0 15 0;
#X connect 15 0 6 0;
#X connect 16 0 25 0;
#X connect 17 0 26 0;
#X connect 18 0 27 0;
#X connect 19 0 28 0;
#X connect 20 0 3 0;
#X connect 21 0 8 0;
#X connect 22 0 9 0;
#X connect 23 0 10 0;
#X connect 24 0 13 0;
#X connect 25 0 4 1;
#X connect 26 0 0 1;
#X connect 27 0 2 1;
#X connect 28 0 1 1;
#X connect 29 0 5 1;
#X connect 30 0 13 1;
#X connect 31 0 10 1;
#X connect 32 0 8 1;
#X connect 33 0 3 1;
#X connect 34 0 28 1;
#X connect 35 0 27 1;
#X connect 36 0 26 1;
#X connect 37 0 25 1;
#X connect 38 0 29 1;
#X connect 39 0 9 1;
#X connect 43 0 46 0;
#X connect 43 0 53 0;
#X connect 45 0 48 0;
#X connect 46 0 45 0;
#X connect 47 0 50 0;
#X connect 48 0 47 0;
#X connect 49 0 52 0;
#X connect 50 0 49 0;
#X connect 51 0 53 1;
#X connect 52 0 51 0;
#X connect 53 0 44 0;
#X connect 53 0 44 1;
#X connect 54 0 55 0;
#X connect 55 0 46 1;
#X connect 55 0 45 1;
#X connect 55 0 48 1;
#X connect 55 0 47 1;
#X connect 55 0 50 1;
#X connect 55 0 49 1;
#X connect 55 0 52 1;
#X connect 55 0 51 1;
#X restore -40 555 pd META;
#X obj 106 630 bng 15 250 50 0 empty empty empty 17 7 0 10 -262144
-1 -1;
#X obj 29 589 metro 230400;
#X obj 327 653 fiddle~;
#X floatatom 327 677 5 0 0 0 - - -;
#X obj 327 701 moses 60;
#X obj 327 728 bng 15 250 50 0 empty empty empty 17 7 0 10 -262144
-1 -1;
#X obj 371 730 bng 15 250 50 0 empty empty empty 17 7 0 10 -262144
-1 -1;
#X floatatom 766 726 5 0 0 0 - - -;
#X obj 766 748 sel 0 1 2 3 4;
#X obj 766 704 random 5;
#X obj 766 681 metro 800000;
#X obj 803 1021 dac~ 1 2;
#X obj 801 955 readsf~ 5;
#X msg 765 793 open C2007.wav \, 1;
#X msg 775 822 open WL2008.wav \, 1;
#X msg 784 851 open M2006.wav \, 1;
#X msg 794 880 open TDS2009.wav \, 1;
#X msg 802 912 open AVPA2010.wav \, 1;
#X msg 969 1177 start;
#X msg 835 1124 stop;
#X msg 834 1094 print;
#X text 813 1172 1;
#X text 952 1173 2;
#X text 822 1147 CAMBIAR NOMBRE FICHERO CADA NUEVA REC.;
#X obj 742 1216 writesf~ 2;
#X msg 832 1175 open osi1.wav;
#X text 82 486 CORPUS INMATERIAL \, Miguel Oliveros et al. Madrid 2014
;
#X connect 0 0 55 0;
#X connect 1 0 49 0;
#X connect 2 0 60 0;
#X connect 2 0 66 0;
#X connect 2 0 70 0;
#X connect 3 0 65 0;
#X connect 3 0 78 0;
#X connect 4 0 56 0;
#X connect 5 0 56 0;
#X connect 6 0 56 0;
#X connect 7 0 56 0;
#X connect 8 0 56 0;
#X connect 9 0 56 0;
#X connect 10 0 56 0;
#X connect 11 0 56 0;
#X connect 12 0 56 0;
#X connect 13 0 56 0;
#X connect 14 0 56 0;
#X connect 15 0 56 0;
#X connect 16 0 50 0;
#X connect 17 0 50 0;
#X connect 18 0 50 0;
#X connect 19 0 50 0;
#X connect 20 0 50 0;
#X connect 21 0 50 0;
#X connect 22 0 50 0;
#X connect 23 0 50 0;
#X connect 24 0 50 0;
#X connect 25 0 50 0;
#X connect 26 0 50 0;
#X connect 27 0 50 0;
#X connect 28 0 50 0;
#X connect 29 0 50 0;
#X connect 30 0 50 0;
#X connect 31 0 50 0;
#X connect 32 0 50 0;
#X connect 33 0 50 0;
#X connect 34 0 50 0;
#X connect 35 0 50 0;
#X connect 36 0 50 0;
#X connect 37 0 50 0;
#X connect 38 0 50 0;
#X connect 39 0 50 0;
#X connect 40 0 50 0;
#X connect 41 0 50 0;
#X connect 42 0 50 0;
#X connect 43 0 50 0;
#X connect 44 0 50 0;
#X connect 45 0 50 0;
#X connect 46 0 50 0;
#X connect 47 0 56 0;
#X connect 48 0 1 0;
#X connect 49 0 16 0;
#X connect 49 1 17 0;
#X connect 49 2 18 0;
#X connect 49 3 19 0;
#X connect 49 4 20 0;
#X connect 49 5 21 0;
#X connect 49 6 22 0;
#X connect 49 7 23 0;
#X connect 49 8 24 0;
#X connect 49 9 25 0;
#X connect 49 10 26 0;
#X connect 49 11 27 0;
#X connect 49 12 28 0;
#X connect 49 13 29 0;
#X connect 49 14 30 0;
#X connect 49 15 31 0;
#X connect 49 16 32 0;
#X connect 49 17 33 0;
#X connect 49 18 34 0;
#X connect 49 19 35 0;
#X connect 49 20 36 0;
#X connect 49 21 37 0;
#X connect 49 22 38 0;
#X connect 49 23 39 0;
#X connect 49 24 40 0;
#X connect 49 25 41 0;
#X connect 49 26 42 0;
#X connect 49 27 43 0;
#X connect 49 28 44 0;
#X connect 49 29 45 0;
#X connect 49 30 46 0;
#X connect 50 0 58 0;
#X connect 50 0 92 0;
#X connect 50 1 58 1;
#X connect 50 1 92 1;
#X connect 50 2 58 0;
#X connect 50 3 58 1;
#X connect 50 28 58 1;
#X connect 50 29 92 1;
#X connect 51 0 56 0;
#X connect 52 0 56 0;
#X connect 53 0 56 0;
#X connect 54 0 0 0;
#X connect 55 0 4 0;
#X connect 55 1 5 0;
#X connect 55 2 6 0;
#X connect 55 3 7 0;
#X connect 55 4 8 0;
#X connect 55 5 9 0;
#X connect 55 6 10 0;
#X connect 55 7 11 0;
#X connect 55 8 12 0;
#X connect 55 9 13 0;
#X connect 55 10 14 0;
#X connect 55 11 47 0;
#X connect 55 12 15 0;
#X connect 55 13 51 0;
#X connect 55 14 52 0;
#X connect 55 15 53 0;
#X connect 56 0 57 0;
#X connect 56 0 57 1;
#X connect 56 0 92 0;
#X connect 56 1 92 1;
#X connect 56 12 57 1;
#X connect 56 14 57 1;
#X connect 56 16 92 1;
#X connect 61 0 60 0;
#X connect 62 0 54 0;
#X connect 63 0 48 0;
#X connect 64 0 50 0;
#X connect 64 0 56 0;
#X connect 65 0 61 0;
#X connect 65 0 69 0;
#X connect 66 0 3 0;
#X connect 69 0 64 0;
#X connect 69 0 68 0;
#X connect 70 0 71 0;
#X connect 71 0 72 0;
#X connect 72 0 73 0;
#X connect 72 1 74 0;
#X connect 73 0 62 0;
#X connect 74 0 63 0;
#X connect 75 0 76 0;
#X connect 76 0 81 0;
#X connect 76 1 82 0;
#X connect 76 2 83 0;
#X connect 76 3 84 0;
#X connect 76 4 85 0;
#X connect 77 0 75 0;
#X connect 78 0 77 0;
#X connect 80 0 79 0;
#X connect 80 0 79 1;
#X connect 80 0 92 0;
#X connect 80 0 92 1;
#X connect 80 5 79 1;
#X connect 80 5 92 1;
#X connect 81 0 80 0;
#X connect 82 0 80 0;
#X connect 83 0 80 0;
#X connect 84 0 80 0;
#X connect 85 0 80 0;
#X connect 86 0 92 0;
#X connect 87 0 92 0;
#X connect 88 0 92 0;
#X connect 93 0 92 0;
#X coords 0 0 2 1 0 0 0;