#N canvas 201 34 1543 1008 10;
#X obj 319 392 qlist;
#X msg 239 339 clear;
#X floatatom 831 42 8 0 0 0 - - -;
#X floatatom 984 46 8 0 0 0 - - -;
#X obj 821 -23 r x;
#X obj 990 -22 r y;
#X floatatom 1088 44 8 0 0 0 - - -;
#X floatatom 1175 47 8 0 0 0 - - -;
#X obj 1078 -21 r r;
#X obj 1181 -21 r t_rel;
#X floatatom 903 45 8 0 0 0 - - -;
#X obj 909 -23 r phi;
#X obj 33 -26 dsp;
#X obj 34 -58 tgl 15 0 empty empty empty 17 7 0 10 -262144 -1 -1 1
1;
#X floatatom 16 24 5 0 0 0 - - -;
#X floatatom 76 23 5 0 0 0 - - -;
#X msg 338 332 bang;
#X floatatom 826 220 8 0 0 0 - - -;
#X floatatom 1119 223 8 0 0 0 - - -;
#X floatatom 1021 223 8 0 0 0 - - -;
#X floatatom 933 223 8 0 0 0 - - -;
#X obj 905 150 expr sqrt(pow(($f1+1) \, 2)+pow(($f2+1) \, 2)) \; sqrt(pow(($f1-1)
\, 2)+pow(($f2+1) \, 2)) \; sqrt(pow(($f1-1) \, 2)+pow(($f2-1) \, 2))
\; sqrt(pow(($f1+1) \, 2)+pow(($f2-1) \, 2)) \;;
#X floatatom 831 347 8 0 0 0 - - -;
#X floatatom 1053 366 8 0 0 0 - - -;
#X floatatom 971 346 8 0 0 0 - - -;
#X floatatom 900 346 8 0 0 0 - - -;
#X obj 747 384 *~;
#X obj 745 438 *~;
#X obj 752 490 *~;
#X obj 754 543 *~;
#X obj 699 624 dac~ 1 2 3 4;
#X obj 883 267 expr pow($f1-sqrt(8) \, 2)/8 \; pow($f2-sqrt(8) \, 2)/8
\; pow($f3-sqrt(8) \, 2)/8 \; pow($f4-sqrt(8) \, 2)/8 \;;
#X obj 1134 317 expr max($f1 \, $f2) \;;
#X obj 1134 357 expr max($f1 \, $f2) \;;
#X obj 1132 395 expr max($f1 \, $f2) \;;
#X floatatom 1141 432 8 0 0 0 - - -;
#X obj 927 386 expr $f1/$f5 \; $f2/$f5 \; $f3/$f5 \; $f4/$f5 \;;
#X floatatom 836 461 8 0 0 0 - - -;
#X floatatom 1052 460 8 0 0 0 - - -;
#X floatatom 976 460 8 0 0 0 - - -;
#X floatatom 905 460 8 0 0 0 - - -;
#X obj 587 367 osc~ \$1;
#X msg 272 267 read b_\$1.txt;
#X floatatom 323 235 5 0 0 0 - - -;
#X msg 405 171 bang;
#X obj 432 203 bng 15 250 50 0 empty empty empty 17 7 0 10 -262144
-1 -1;
#X obj 264 201 random 251;
#X obj 657 269 expr 110*$f1 \;;
#X floatatom 681 303 5 0 0 0 - - -;
#X obj 391 500 line~;
#X obj 676 577 *~;
#X obj 585 578 *~;
#X obj 615 578 *~;
#X obj 645 578 *~;
#X msg 377 396 0;
#X floatatom 469 249 7 0 0 0 - - -;
#X obj 455 308 bng 15 250 50 0 empty empty empty 17 7 0 10 -262144
-1 -1;
#X obj 427 275 delay;
#X obj 549 154 select 0 1;
#X floatatom 682 141 5 0 0 0 - - -;
#X obj 654 92 expr $f1>15;
#X obj 747 92 expr $f1<2.2;
#X msg 464 442 0 500;
#X msg 419 396 1 500;
#X connect 0 1 44 0;
#X connect 1 0 0 0;
#X connect 2 0 21 0;
#X connect 3 0 21 1;
#X connect 4 0 2 0;
#X connect 5 0 3 0;
#X connect 6 0 60 0;
#X connect 6 0 61 0;
#X connect 7 0 47 0;
#X connect 8 0 6 0;
#X connect 9 0 7 0;
#X connect 11 0 10 0;
#X connect 12 0 14 0;
#X connect 12 1 15 0;
#X connect 13 0 12 0;
#X connect 16 0 0 0;
#X connect 17 0 31 0;
#X connect 18 0 31 3;
#X connect 19 0 31 2;
#X connect 20 0 31 1;
#X connect 21 0 17 0;
#X connect 21 1 20 0;
#X connect 21 2 19 0;
#X connect 21 3 18 0;
#X connect 22 0 32 0;
#X connect 22 0 36 0;
#X connect 23 0 34 1;
#X connect 23 0 36 3;
#X connect 24 0 33 1;
#X connect 24 0 36 2;
#X connect 25 0 32 1;
#X connect 25 0 36 1;
#X connect 26 0 51 1;
#X connect 27 0 52 1;
#X connect 28 0 53 1;
#X connect 29 0 50 1;
#X connect 31 0 22 0;
#X connect 31 1 25 0;
#X connect 31 2 24 0;
#X connect 31 3 23 0;
#X connect 32 0 33 0;
#X connect 33 0 34 0;
#X connect 34 0 35 0;
#X connect 35 0 36 4;
#X connect 36 0 37 0;
#X connect 36 1 40 0;
#X connect 36 2 39 0;
#X connect 36 3 38 0;
#X connect 37 0 26 1;
#X connect 38 0 29 1;
#X connect 39 0 28 1;
#X connect 40 0 27 1;
#X connect 41 0 26 0;
#X connect 41 0 27 0;
#X connect 41 0 28 0;
#X connect 41 0 29 0;
#X connect 42 0 0 0;
#X connect 42 0 16 0;
#X connect 44 0 45 0;
#X connect 44 0 46 0;
#X connect 44 0 54 0;
#X connect 44 0 57 0;
#X connect 46 0 42 0;
#X connect 46 0 43 0;
#X connect 47 0 41 1;
#X connect 47 0 48 0;
#X connect 49 0 51 0;
#X connect 49 0 52 0;
#X connect 49 0 53 0;
#X connect 49 0 50 0;
#X connect 50 0 30 3;
#X connect 51 0 30 0;
#X connect 52 0 30 1;
#X connect 53 0 30 2;
#X connect 54 0 49 0;
#X connect 55 0 57 1;
#X connect 57 0 63 0;
#X connect 57 0 56 0;
#X connect 58 1 62 0;
#X connect 60 0 58 0;
#X connect 60 0 59 0;
#X connect 61 0 59 0;
#X connect 61 0 58 0;
#X connect 62 0 49 0;
#X connect 63 0 49 0;
