#N canvas 0 385 371 516 10;
#X obj -197 -73 tgl 25 0 empty empty DSP 3 12 1 9 -24198 -1 -1 1 1
;
#X msg -195 -42 \; pd dsp \$1;
#X floatatom -198 284 6 0 0 0 - - -;
#X floatatom -182 259 6 0 0 0 - - -;
#X text -141 252 dB;
#X text -157 282 dB;
#X text -164 40 dB;
#X text -155 60 dB;
#X text -132 58 peak-level;
#X text -134 37 rms-level;
#X text -120 251 peak-level;
#X text -137 281 rms-level;
#X floatatom -224 40 7 -110 20 0 - - -;
#X floatatom -213 61 7 -110 20 0 - - -;
#N canvas 236 62 699 530 edit 0;
#X obj 37 222 f;
#X msg 15 201 bang;
#X floatatom 53 200 3 50 88 0 - - -;
#X floatatom 88 222 3 0 37 0 - - -;
#X obj 37 245 pack 0 0;
#X text 115 222 y-label;
#X text 81 200 x-label;
#X obj 292 313 f;
#X msg 270 292 bang;
#X floatatom 308 291 3 -10 10 0 - - -;
#X floatatom 343 313 3 -10 10 0 - - -;
#X obj 292 336 pack 0 0;
#X obj 304 435 f;
#X msg 282 414 bang;
#X floatatom 320 413 3 20 140 0 - - -;
#X floatatom 355 435 3 150 200 0 - - -;
#X obj 304 458 pack 0 0;
#X text 336 291 x-delta;
#X text 370 313 y-delta;
#X text 348 413 x-position;
#X text 382 435 y-position;
#X obj 57 337 f;
#X msg 35 316 bang;
#X floatatom 73 315 3 0 2 0 - - -;
#X floatatom 108 337 3 8 36 0 - - -;
#X obj 57 360 pack 0 0;
#X text 101 315 font;
#X text 137 337 height;
#X floatatom 471 106 1 0 1 0 - - -;
#X msg 52 131 \; foo7_rcv color \$1 \$2;
#X msg 37 270 \; foo7_rcv label_pos \$1 \$2;
#X msg 57 386 \; foo7_rcv label_font \$1 \$2;
#X msg 37 427 \; foo7_rcv label blabla;
#X msg 292 361 \; foo7_rcv delta \$1 \$2;
#X msg 304 483 \; foo7_rcv pos \$1 \$2;
#X msg 469 23 \; foo7_rcv receive foo7a_rcv;
#X msg 469 60 \; foo7a_rcv receive foo7_rcv;
#X text 492 106 display scale;
#X msg 471 132 \; foo7_rcv scale \$1;
#X obj 279 193 f;
#X msg 257 172 bang;
#X floatatom 295 171 3 8 50 0 - - -;
#X floatatom 330 193 3 110 200 0 - - -;
#X obj 279 216 pack 0 0;
#X text 323 171 width;
#X text 357 193 height;
#X msg 279 241 \; foo7_rcv size \$1 \$2;
#X msg 37 463 \; foo7_rcv label vu-meter;
#X obj 52 79 f;
#X msg 29 31 bang;
#X floatatom 68 29 3 0 29 0 - - -;
#X floatatom 103 47 3 0 29 0 - - -;
#X text 96 29 background;
#X text 131 48 label-color;
#X msg 290 25 back;
#X msg 290 49 label;
#X msg 252 25 bang;
#N canvas 15 207 606 448 RGB_____________ 0;
#X obj 97 56 inlet;
#X obj 262 53 inlet;
#X obj 339 55 inlet;
#X obj 405 56 inlet;
#X obj 97 270 bang;
#X msg 77 295 0;
#X msg 104 295 1;
#X obj 146 268 bang;
#X msg 132 295 0;
#X msg 160 295 1;
#X obj 265 313 spigot;
#X obj 312 313 spigot;
#X obj 249 385 outlet;
#X text 93 33 select;
#X text 267 28 red;
#X text 337 30 green;
#X text 409 30 blue;
#X obj 405 102 t b f;
#X obj 339 160 +;
#X obj 339 185 t b f;
#X obj 339 216 +;
#X obj 296 385 outlet;
#X obj 28 180 loadbang;
#X obj 296 361 f;
#X obj 249 361 f;
#X obj 262 79 * -65536;
#X obj 339 80 * -256;
#X obj 405 80 * -1;
#X obj 339 247 - 1;
#X obj 97 135 route back label bang;
#X obj 235 168 t b b b;
#X connect 0 0 29 0;
#X connect 1 0 25 0;
#X connect 2 0 26 0;
#X connect 3 0 27 0;
#X connect 4 0 5 0;
#X connect 4 0 6 0;
#X connect 5 0 11 1;
#X connect 6 0 10 1;
#X connect 7 0 8 0;
#X connect 7 0 9 0;
#X connect 8 0 10 1;
#X connect 9 0 11 1;
#X connect 10 0 24 1;
#X connect 11 0 23 1;
#X connect 17 0 18 0;
#X connect 17 1 18 1;
#X connect 18 0 19 0;
#X connect 19 0 20 0;
#X connect 19 1 20 1;
#X connect 20 0 28 0;
#X connect 22 0 6 0;
#X connect 23 0 21 0;
#X connect 24 0 12 0;
#X connect 25 0 20 0;
#X connect 26 0 18 0;
#X connect 27 0 17 0;
#X connect 28 0 11 0;
#X connect 28 0 10 0;
#X connect 29 0 4 0;
#X connect 29 1 7 0;
#X connect 29 2 30 0;
#X connect 30 0 24 0;
#X connect 30 1 23 0;
#X connect 30 2 28 0;
#X restore 290 86 pd RGB_____________;
#X floatatom 332 55 3 0 255 0 - - -;
#X floatatom 375 55 3 0 255 0 - - -;
#X floatatom 418 56 3 0 255 0 - - -;
#X text 39 3 preset-colors;
#X text 301 0 RGB-colors;
#X text 332 37 red;
#X text 368 36 green;
#X text 416 36 blue;
#X obj 52 104 pack 0 0;
#X connect 0 0 4 0;
#X connect 1 0 0 0;
#X connect 2 0 0 1;
#X connect 3 0 4 1;
#X connect 4 0 30 0;
#X connect 7 0 11 0;
#X connect 8 0 7 0;
#X connect 9 0 7 1;
#X connect 10 0 11 1;
#X connect 11 0 33 0;
#X connect 12 0 16 0;
#X connect 13 0 12 0;
#X connect 14 0 12 1;
#X connect 15 0 16 1;
#X connect 16 0 34 0;
#X connect 21 0 25 0;
#X connect 22 0 21 0;
#X connect 23 0 21 1;
#X connect 24 0 25 1;
#X connect 25 0 31 0;
#X connect 28 0 38 0;
#X connect 39 0 43 0;
#X connect 40 0 39 0;
#X connect 41 0 39 1;
#X connect 42 0 43 1;
#X connect 43 0 46 0;
#X connect 48 0 66 0;
#X connect 49 0 48 0;
#X connect 50 0 48 1;
#X connect 51 0 66 1;
#X connect 54 0 57 0;
#X connect 55 0 57 0;
#X connect 56 0 57 0;
#X connect 57 0 66 0;
#X connect 57 1 66 1;
#X connect 58 0 57 1;
#X connect 59 0 57 2;
#X connect 60 0 57 3;
#X connect 66 0 29 0;
#X restore -158 146 pd edit;
#N canvas 147 336 290 235 source 0;
#X obj 40 95 random 102;
#X obj 40 171 - 101;
#X obj 40 205 pack 0 0;
#X obj 40 45 metro 300;
#X obj 40 69 t b b;
#X obj 133 95 random 20;
#X obj 40 117 t f f;
#X obj 91 147 +;
#X obj 91 172 - 101;
#X obj 40 21 inlet;
#X obj 40 230 outlet;
#X connect 0 0 6 0;
#X connect 1 0 2 0;
#X connect 2 0 10 0;
#X connect 3 0 4 0;
#X connect 4 0 0 0;
#X connect 4 1 5 0;
#X connect 5 0 7 1;
#X connect 6 0 1 0;
#X connect 6 1 7 0;
#X connect 7 0 8 0;
#X connect 8 0 2 1;
#X connect 9 0 3 0;
#X restore -232 -5 pd source;
#X obj -172 18 s fff;
#X obj -231 99 vu 15 120 empty empty -1 -8 0 10 -66577 -1 1 0;
#X obj -284 99 vu 15 120 empty empty -1 -8 0 10 -66577 -1 1 0;
#X floatatom -274 288 6 0 0 0 - - -;
#X floatatom -266 258 6 0 0 0 - - -;
#N canvas 449 26 1412 934 META 1;
#X obj 257 -381 adc~;
#N canvas 0 22 796 453 (subpatch) 0;
#X array array1 100 float 3;
#A 0 0.000701904 0.000762939 0.000793457 0.000915527 0.000854492 0.000823975
0.000823975 0.000762939 0.000701904 0.000823975 0.000915527 0.00088501
0.000946045 0.00088501 0.00100708 0.000915527 0.000854492 0.0010376
0.00109863 0.00106812 0.000915527 0.000823975 0.00088501 0.000946045
0.000946045 0.000976562 0.00109863 0.00106812 0.00112915 0.00119019
0.00109863 0.00112915 0.00125122 0.00119019 0.00112915 0.00109863 0.00106812
0.00106812 0.000946045 0.000946045 0.000915527 0.000823975 0.000793457
0.000823975 0.000915527 0.00088501 0.000671387 0.000610352 0.000610352
0.000823975 0.000854492 0.000762939 0.000854492 0.000762939 0.000701904
0.000671387 0.000793457 0.000671387 0.000701904 0.000793457 0.000823975
0.000762939 0.000915527 0.000976562 0.000854492 0.00100708 0.00106812
0.00115967 0.00115967 0.00112915 0.00112915 0.00112915 0.00115967 0.000976562
0.000915527 0.00106812 0.00100708 0.000793457 0.000701904 0.000762939
0.000823975 0.000762939 0.000671387 0.000671387 0.000610352 0.000549316
0.000549316 0.000579834 0.000549316 0.000640869 0.000610352 0.000396729
0.000366211 0.000335693 0.000427246 0.000427246 0.000366211 0.000366211
0.000427246 0.000396729;
#X coords 0 1 99 -1 200 140 1;
#X restore 501 -426 graph;
#X obj 393 -337 tabwrite~ array1;
#X obj 393 -379 bng 15 250 50 0 empty empty empty 17 7 0 10 -262144
-1 -1;
#X obj 248 -249 threshold~ 1 3000 0.1 1000;
#X text 459 -359 msec.;
#X text 99 -343 input sensitivity mic;
#X obj 393 -358 metro 160;
#X obj 142 214 freeverb~;
#X msg 143 -298 roomsize \$1;
#X msg 143 -253 damping \$1;
#X msg 145 -201 width \$1;
#X msg 145 -157 wet \$1;
#X msg 145 -113 dry \$1;
#X msg 354 -128 print;
#X msg 248 -166 freeze \$1;
#X msg 259 -108 bypass \$1;
#X obj 259 -127 tgl 15 0 empty empty empty 0 -6 0 8 -262144 -1 -1 0
1;
#X obj 248 -186 tgl 15 0 empty empty empty 0 -6 0 8 -262144 -1 -1 0
1;
#X obj 157 -136 hsl 60 18 0 1 0 1 empty empty dry 2 9 1 12 -225271
-1 -1 800 0;
#X obj 157 -180 hsl 60 18 0 1 0 1 empty empty wet 2 9 1 12 -225271
-1 -1 3000 0;
#X obj 155 -232 hsl 60 18 0 1 0 1 empty empty width 2 9 1 12 -262131
-1 -1 2600 0;
#X obj 155 -276 hsl 60 18 0 2 0 1 empty empty damping 2 9 1 12 -261689
-1 -1 1300 0;
#X obj 160 -322 hsl 60 18 0.11 1.1 0 1 empty empty roomsize 2 9 1 12
-261689 -1 -1 2300 0;
#X floatatom 125 -317 3 0 0 0 - - -;
#X floatatom 125 -272 3 0 0 0 - - -;
#X floatatom 125 -227 3 0 0 0 - - -;
#X floatatom 127 -176 3 0 0 0 - - -;
#X floatatom 127 -132 3 0 0 0 - - -;
#X text 330 -205 msec.;
#X obj 600 -102 fiddle~;
#X obj 600 -50 moses 60;
#X obj 336 -9 bng 15 250 50 0 empty empty empty 17 7 0 10 -262144 -1
-1;
#X obj 409 -8 bng 15 250 50 0 empty empty empty 17 7 0 10 -262144 -1
-1;
#X floatatom 600 -78 5 0 0 0 - - -;
#X msg 336 56 freeze \$1;
#X obj 336 37 tgl 15 0 empty empty empty 0 -6 0 8 -262144 -1 -1 0 1
;
#X msg 409 57 freeze \$1;
#X obj 409 38 tgl 15 0 empty empty empty 0 -6 0 8 -262144 -1 -1 1 1
;
#X obj 336 15 metro 3500;
#X obj 409 14 metro 3500;
#X obj 248 -226 bng 15 250 50 0 empty empty empty 17 7 0 10 -262144
-1 -1;
#X obj 248 -206 metro 2500;
#X obj 483 -10 bng 15 250 50 0 empty empty empty 17 7 0 10 -262144
-1 -1;
#X obj 556 -9 bng 15 250 50 0 empty empty empty 17 7 0 10 -262144 -1
-1;
#X msg 483 55 freeze \$1;
#X obj 483 36 tgl 15 0 empty empty empty 0 -6 0 8 -262144 -1 -1 1 1
;
#X msg 556 56 freeze \$1;
#X obj 556 37 tgl 15 0 empty empty empty 0 -6 0 8 -262144 -1 -1 1 1
;
#X obj 483 14 metro 1500;
#X obj 400 358 writesf~ 2;
#X msg 667 338 start;
#X msg 522 288 stop;
#X msg 481 288 print;
#X text 511 333 1;
#X text 650 334 2;
#X obj 556 13 metro 1500;
#X obj 300 83 bng 15 250 50 0 empty empty empty 17 7 0 10 -262144 -1
-1;
#X obj 373 84 bng 15 250 50 0 empty empty empty 17 7 0 10 -262144 -1
-1;
#X msg 300 148 freeze \$1;
#X obj 300 129 tgl 15 0 empty empty empty 0 -6 0 8 -262144 -1 -1 0
1;
#X msg 373 149 freeze \$1;
#X obj 373 130 tgl 15 0 empty empty empty 0 -6 0 8 -262144 -1 -1 1
1;
#X obj 300 107 metro 5000;
#X obj 373 106 metro 5000;
#X obj 475 88 bng 15 250 50 0 empty empty empty 17 7 0 10 -262144 -1
-1;
#X obj 548 89 bng 15 250 50 0 empty empty empty 17 7 0 10 -262144 -1
-1;
#X msg 475 153 freeze \$1;
#X obj 475 134 tgl 15 0 empty empty empty 0 -6 0 8 -262144 -1 -1 0
1;
#X msg 548 154 freeze \$1;
#X obj 548 135 tgl 15 0 empty empty empty 0 -6 0 8 -262144 -1 -1 1
1;
#X obj 475 112 metro 1000;
#X obj 548 111 metro 1000;
#X floatatom 649 -77 5 0 0 0 - - -;
#X floatatom 697 -77 5 0 0 0 - - -;
#X floatatom 749 -79 5 0 0 0 - - -;
#X obj 358 411 delwrite~ delayLeft 4000;
#X obj 356 387 delwrite~ delayRight 4000;
#X obj 348 451 delread~ delayRight 1500;
#X obj 350 475 delread~ delayLeft 1000;
#X text 520 308 CAMBIAR NOMBRE FICHERO CADA NUEVA REC.;
#X obj 717 -9 bng 15 250 50 0 empty empty empty 17 7 0 10 -262144 -1
-1;
#X msg 717 56 freeze \$1;
#X obj 717 37 tgl 15 0 empty empty empty 0 -6 0 8 -262144 -1 -1 1 1
;
#X obj 709 89 bng 15 250 50 0 empty empty empty 17 7 0 10 -262144 -1
-1;
#X msg 709 154 freeze \$1;
#X obj 709 135 tgl 15 0 empty empty empty 0 -6 0 8 -262144 -1 -1 1
1;
#X obj 709 111 metro 1000;
#X obj 647 -7 bng 15 250 50 0 empty empty empty 17 7 0 10 -262144 -1
-1;
#X msg 647 58 freeze \$1;
#X obj 647 39 tgl 15 0 empty empty empty 0 -6 0 8 -262144 -1 -1 0 1
;
#X obj 639 91 bng 15 250 50 0 empty empty empty 17 7 0 10 -262144 -1
-1;
#X msg 639 156 freeze \$1;
#X obj 639 137 tgl 15 0 empty empty empty 0 -6 0 8 -262144 -1 -1 0
1;
#X obj 639 113 metro 1000;
#X obj 647 15 metro 5000;
#X obj 717 13 metro 5000;
#X obj 865 -9 bng 15 250 50 0 empty empty empty 17 7 0 10 -262144 -1
-1;
#X msg 865 56 freeze \$1;
#X obj 865 37 tgl 15 0 empty empty empty 0 -6 0 8 -262144 -1 -1 0 1
;
#X obj 857 89 bng 15 250 50 0 empty empty empty 17 7 0 10 -262144 -1
-1;
#X msg 857 154 freeze \$1;
#X obj 857 135 tgl 15 0 empty empty empty 0 -6 0 8 -262144 -1 -1 1
1;
#X obj 857 111 metro 1000;
#X obj 795 -7 bng 15 250 50 0 empty empty empty 17 7 0 10 -262144 -1
-1;
#X msg 795 58 freeze \$1;
#X obj 795 39 tgl 15 0 empty empty empty 0 -6 0 8 -262144 -1 -1 0 1
;
#X obj 787 91 bng 15 250 50 0 empty empty empty 17 7 0 10 -262144 -1
-1;
#X msg 787 156 freeze \$1;
#X obj 787 137 tgl 15 0 empty empty empty 0 -6 0 8 -262144 -1 -1 0
1;
#X obj 787 113 metro 1000;
#X obj 795 15 metro 6000;
#X obj 865 13 metro 6000;
#X msg 10 -105 open D♭.wav \, 1;
#X obj 7 212 readsf~ 1;
#X msg -46 163 stop;
#X obj 132 418 dac~ 1 2 3 4;
#N canvas 0 23 345 160 META 0;
#X msg 56 49 bang;
#X msg 12 20 bang;
#X floatatom 12 111 0 0 0 0 - - -;
#X text 53 18 Click here to reset;
#X obj 12 80 cputime;
#X text 106 49 Click here to get elapsed CPU time;
#X connect 0 0 4 1;
#X connect 1 0 4 0;
#X connect 4 0 2 0;
#X restore 972 359 pd META;
#X obj 1085 -95 +~;
#X obj 1086 -374 +~;
#X obj 1086 -223 +~;
#X obj 1085 107 +~;
#X obj 1085 80 +~;
#X obj 1086 132 +~;
#X obj 970 296 output~;
#X obj 971 -85 +~;
#X obj 971 -373 +~;
#X obj 987 -281 +~;
#X obj 985 -150 +~;
#X obj 971 -234 +~;
#X obj 984 2 +~;
#X obj 970 120 +~;
#X obj 971 -426 osc~ 34.6478;
#X obj 985 -402 osc~ 35;
#X obj 987 -335 osc~ 69.2957;
#X obj 1001 -311 osc~ 70;
#X obj 985 -211 osc~ 138.591;
#X obj 1000 -190 osc~ 139;
#X obj 984 -61 osc~ 277.183;
#X obj 1001 -40 osc~ 278;
#X obj 1086 -425 osc~ 554.365;
#X obj 1101 -400 osc~ 555;
#X obj 1101 -277 +~;
#X obj 1101 -330 osc~ 1108.73;
#X obj 1116 -303 osc~ 1109;
#X obj 1101 -127 +~;
#X obj 1101 -180 osc~ 2217.46;
#X obj 1116 -153 osc~ 2218;
#X obj 1170 242 phasor~ 0.5;
#X obj 1169 263 *~ 0.5;
#X floatatom 1262 198 5 0 0 0 - - -;
#X obj 1262 227 knob 50 50 0 127 0 0 empty empty empty 0 -8 0 8 -4034
-1 -1 2482 1;
#X obj 1169 292 equal_power_pan~;
#X obj 1262 172 fiddle~;
#X obj 1262 146 adc~;
#X msg 528 336 open REmaster6.wav;
#X obj 247 -277 *~ 1;
#X obj 1173 332 dac~ 1 2 3 4;
#X text 398 -81 D♭ Midi number: 38 \, 50 \, 62 \, 74>>;
#X text 1163 -46 ALL Hz in D♭;
#X text 1164 -25 [Hz= 190.533 / 1.618];
#X connect 0 0 30 0;
#X connect 0 0 156 0;
#X connect 0 0 116 0;
#X connect 0 0 116 3;
#X connect 3 0 7 0;
#X connect 3 0 113 0;
#X connect 4 0 41 0;
#X connect 7 0 2 0;
#X connect 8 0 50 0;
#X connect 8 0 76 0;
#X connect 8 0 116 0;
#X connect 8 0 116 3;
#X connect 8 1 50 1;
#X connect 8 1 77 0;
#X connect 8 1 116 3;
#X connect 9 0 8 0;
#X connect 10 0 8 0;
#X connect 11 0 8 0;
#X connect 12 0 8 0;
#X connect 13 0 8 0;
#X connect 14 0 8 0;
#X connect 15 0 8 0;
#X connect 16 0 8 0;
#X connect 17 0 16 0;
#X connect 18 0 15 0;
#X connect 19 0 13 0;
#X connect 19 0 28 0;
#X connect 20 0 12 0;
#X connect 20 0 27 0;
#X connect 21 0 11 0;
#X connect 21 0 26 0;
#X connect 22 0 10 0;
#X connect 22 0 25 0;
#X connect 23 0 9 0;
#X connect 23 0 24 0;
#X connect 30 0 34 0;
#X connect 30 1 73 0;
#X connect 30 2 74 0;
#X connect 30 3 75 0;
#X connect 31 0 32 0;
#X connect 31 0 43 0;
#X connect 31 0 88 0;
#X connect 31 0 104 0;
#X connect 31 1 33 0;
#X connect 31 1 44 0;
#X connect 31 1 81 0;
#X connect 31 1 97 0;
#X connect 32 0 39 0;
#X connect 32 0 57 0;
#X connect 33 0 40 0;
#X connect 33 0 58 0;
#X connect 34 0 31 0;
#X connect 35 0 8 0;
#X connect 36 0 35 0;
#X connect 37 0 8 0;
#X connect 38 0 37 0;
#X connect 39 0 36 0;
#X connect 40 0 38 0;
#X connect 41 0 42 0;
#X connect 41 0 17 0;
#X connect 42 0 18 0;
#X connect 43 0 49 0;
#X connect 43 0 65 0;
#X connect 44 0 56 0;
#X connect 44 0 66 0;
#X connect 45 0 8 0;
#X connect 46 0 45 0;
#X connect 47 0 8 0;
#X connect 48 0 47 0;
#X connect 49 0 46 0;
#X connect 51 0 50 0;
#X connect 52 0 50 0;
#X connect 53 0 50 0;
#X connect 56 0 48 0;
#X connect 57 0 63 0;
#X connect 58 0 64 0;
#X connect 59 0 8 0;
#X connect 60 0 59 0;
#X connect 61 0 8 0;
#X connect 62 0 61 0;
#X connect 63 0 60 0;
#X connect 64 0 62 0;
#X connect 65 0 71 0;
#X connect 66 0 72 0;
#X connect 67 0 8 0;
#X connect 68 0 67 0;
#X connect 69 0 8 0;
#X connect 70 0 69 0;
#X connect 71 0 68 0;
#X connect 72 0 70 0;
#X connect 78 0 50 1;
#X connect 78 0 116 1;
#X connect 79 0 50 0;
#X connect 79 0 116 0;
#X connect 81 0 84 0;
#X connect 81 0 96 0;
#X connect 83 0 82 0;
#X connect 84 0 87 0;
#X connect 85 0 8 0;
#X connect 86 0 85 0;
#X connect 87 0 86 0;
#X connect 88 0 91 0;
#X connect 88 0 95 0;
#X connect 90 0 89 0;
#X connect 91 0 94 0;
#X connect 92 0 8 0;
#X connect 93 0 92 0;
#X connect 94 0 93 0;
#X connect 95 0 90 0;
#X connect 96 0 83 0;
#X connect 97 0 100 0;
#X connect 97 0 112 0;
#X connect 99 0 98 0;
#X connect 100 0 103 0;
#X connect 101 0 8 0;
#X connect 102 0 101 0;
#X connect 103 0 102 0;
#X connect 104 0 107 0;
#X connect 104 0 111 0;
#X connect 106 0 105 0;
#X connect 107 0 110 0;
#X connect 108 0 8 0;
#X connect 109 0 108 0;
#X connect 110 0 109 0;
#X connect 111 0 106 0;
#X connect 112 0 99 0;
#X connect 113 0 114 0;
#X connect 114 0 50 0;
#X connect 114 0 50 1;
#X connect 114 0 116 3;
#X connect 114 0 116 2;
#X connect 114 0 116 0;
#X connect 114 1 50 0;
#X connect 114 1 50 1;
#X connect 114 1 116 3;
#X connect 115 0 114 0;
#X connect 118 0 122 0;
#X connect 119 0 120 0;
#X connect 119 0 148 0;
#X connect 120 0 118 0;
#X connect 121 0 123 0;
#X connect 122 0 121 0;
#X connect 123 0 124 1;
#X connect 123 0 124 0;
#X connect 125 0 131 0;
#X connect 125 0 148 0;
#X connect 126 0 129 0;
#X connect 126 0 148 0;
#X connect 127 0 129 1;
#X connect 128 0 125 1;
#X connect 129 0 125 0;
#X connect 129 0 148 0;
#X connect 130 0 131 1;
#X connect 130 0 148 0;
#X connect 131 0 124 1;
#X connect 131 0 124 0;
#X connect 132 0 126 0;
#X connect 133 0 126 1;
#X connect 134 0 127 0;
#X connect 135 0 127 1;
#X connect 136 0 128 0;
#X connect 137 0 128 1;
#X connect 138 0 130 0;
#X connect 139 0 130 1;
#X connect 140 0 119 0;
#X connect 141 0 119 1;
#X connect 142 0 148 0;
#X connect 143 0 142 0;
#X connect 144 0 142 1;
#X connect 145 0 148 0;
#X connect 146 0 145 0;
#X connect 147 0 145 1;
#X connect 148 0 149 0;
#X connect 149 0 152 0;
#X connect 150 0 151 0;
#X connect 151 0 152 1;
#X connect 153 0 150 0;
#X connect 154 0 153 0;
#X connect 155 0 50 0;
#X connect 156 0 2 0;
#X connect 156 0 4 0;
#X restore -76 -39 pd META;
#X text -305 -109 SourceCode in the Sublime. Miguel Oliveros \, Madrid
\, Tanger \, Ceuta 2016;
#X connect 0 0 1 0;
#X connect 0 0 15 0;
#X connect 12 0 17 0;
#X connect 13 0 17 0;
#X connect 15 0 16 0;
#X connect 15 0 17 0;
#X connect 15 0 18 0;
#X connect 17 0 3 0;
#X connect 17 0 2 0;
#X connect 18 0 20 0;
#X connect 18 0 19 0;