#N canvas 559 49 353 171 10;
#N canvas 876 177 375 255 startup 0;
#X obj 22 24 loadbang;
#X obj 22 48 bng 15 250 50 0 empty empty empty 0 -6 0 8 -262144 -1
-1;
#X obj 22 67 f \$0;
#X text 35 195 This subpatch loads initial;
#X text 31 219 values in number boxes.;
#X msg 22 91 \; \$1-pole 80;
#X connect 0 0 1 0;
#X connect 1 0 2 0;
#X connect 2 0 5 0;
#X restore 233 -395 pd startup;
#X obj 981 -416 osc~ 34.6478;
#X obj 1096 -415 osc~ 554.365;
#N canvas 0 0 1280 691 swarzschild0 1;
#X floatatom 372 26 8 0 0 0 - - -;
#X floatatom 525 30 8 0 0 0 - - -;
#X obj 362 -39 r x;
#X obj 531 -38 r y;
#X floatatom 629 28 8 0 0 0 - - -;
#X floatatom 716 31 8 0 0 0 - - -;
#X obj 619 -37 r r;
#X obj 722 -37 r t_rel;
#X floatatom 444 29 8 0 0 0 - - -;
#X obj 450 -39 r phi;
#X floatatom 367 204 8 0 0 0 - - -;
#X floatatom 660 207 8 0 0 0 - - -;
#X floatatom 562 207 8 0 0 0 - - -;
#X floatatom 474 207 8 0 0 0 - - -;
#X obj 446 134 expr sqrt(pow(($f1+1) \, 2)+pow(($f2+1) \, 2)) \; sqrt(pow(($f1-1)
\, 2)+pow(($f2+1) \, 2)) \; sqrt(pow(($f1-1) \, 2)+pow(($f2-1) \, 2))
\; sqrt(pow(($f1+1) \, 2)+pow(($f2-1) \, 2)) \;;
#X floatatom 372 331 8 0 0 0 - - -;
#X floatatom 588 330 8 0 0 0 - - -;
#X floatatom 512 330 8 0 0 0 - - -;
#X floatatom 441 330 8 0 0 0 - - -;
#X obj 320 366 *~;
#X obj 318 420 *~;
#X obj 325 472 *~;
#X obj 327 525 *~;
#X obj 272 606 dac~ 1 2 3 4;
#X floatatom 682 416 8 0 0 0 - - -;
#X floatatom 377 445 8 0 0 0 - - -;
#X floatatom 591 442 8 0 0 0 - - -;
#X floatatom 522 443 8 0 0 0 - - -;
#X floatatom 446 444 8 0 0 0 - - -;
#X obj 675 301 expr max(abs($f1) \, abs($f2)) \;;
#X obj 675 341 expr max(abs($f1) \, abs($f2)) \;;
#X obj 673 379 expr max(abs($f1) \, abs($f2)) \;;
#X obj 468 370 expr abs($f1)/$f5 \; abs($f2)/$f5 \; abs($f3)/$f5 \;
abs($f4)/$f5 \;;
#X obj 424 251 expr pow($f1-sqrt(8) \, $f5)/pow(8 \, $f5/2) \; pow($f2-sqrt(8)
\, $f5)/pow(8 \, $f5/2) \; pow($f3-sqrt(8) \, $f5)/pow(8 \, $f5/2)
\; pow($f4-sqrt(8) \, $f5)/pow(8 \, $f5/2) \;;
#X floatatom 697 236 8 0 0 0 - - -;
#X obj 282 -82 adc~;
#X obj 111 346 osc~ \$1;
#X floatatom 610 385 8 0 0 0 - - -;
#X obj 676 455 hsl 128 15 0 15 0 0 empty empty empty -2 -8 0 10 -262144
-1 -1 10000 1;
#X floatatom 155 316 8 0 0 0 - - -;
#X obj 155 293 expr 193.883*$f1;
#X obj 174 222 qlist;
#X msg 71 130 rewind;
#X msg 78 183 next;
#X msg 75 257 clear;
#X msg 205 42 bang;
#X msg 139 -23 read b_\$1.txt;
#X floatatom 190 -55 5 0 0 0 - - -;
#X msg 228 -123 bang;
#X msg 74 -123 stop;
#X text 10 23 insert FADE IN AND OUT;
#X obj 131 -89 random 251;
#X obj 219 244 bng 15 250 50 0 empty empty empty 17 7 0 10 -262144
-1 -1;
#X obj 241 -73 bng 15 250 50 0 empty empty empty 17 7 0 10 -262144
-1 -1;
#X connect 0 0 14 0;
#X connect 1 0 14 1;
#X connect 2 0 0 0;
#X connect 3 0 1 0;
#X connect 5 0 40 0;
#X connect 6 0 4 0;
#X connect 7 0 5 0;
#X connect 9 0 8 0;
#X connect 10 0 33 0;
#X connect 11 0 33 3;
#X connect 12 0 33 2;
#X connect 13 0 33 1;
#X connect 14 0 10 0;
#X connect 14 1 13 0;
#X connect 14 2 12 0;
#X connect 14 3 11 0;
#X connect 15 0 29 0;
#X connect 15 0 32 0;
#X connect 16 0 31 1;
#X connect 16 0 32 3;
#X connect 17 0 30 1;
#X connect 17 0 32 2;
#X connect 18 0 29 1;
#X connect 18 0 32 1;
#X connect 19 0 23 0;
#X connect 20 0 23 1;
#X connect 21 0 23 2;
#X connect 22 0 23 3;
#X connect 25 0 19 1;
#X connect 26 0 22 1;
#X connect 27 0 21 1;
#X connect 28 0 20 1;
#X connect 29 0 30 0;
#X connect 30 0 31 0;
#X connect 31 0 24 0;
#X connect 32 0 25 0;
#X connect 32 1 28 0;
#X connect 32 2 27 0;
#X connect 32 3 26 0;
#X connect 33 0 15 0;
#X connect 33 1 18 0;
#X connect 33 2 17 0;
#X connect 33 3 16 0;
#X connect 34 0 33 4;
#X connect 36 0 19 0;
#X connect 36 0 20 0;
#X connect 36 0 21 0;
#X connect 36 0 22 0;
#X connect 37 0 32 4;
#X connect 38 0 37 0;
#X connect 39 0 36 1;
#X connect 40 0 39 0;
#X connect 41 1 48 0;
#X connect 41 1 52 0;
#X connect 42 0 41 0;
#X connect 43 0 41 0;
#X connect 44 0 41 0;
#X connect 45 0 41 0;
#X connect 46 0 41 0;
#X connect 46 0 45 0;
#X connect 48 0 51 0;
#X connect 48 0 53 0;
#X connect 51 0 47 0;
#X connect 51 0 46 0;
#X restore 115 -394 pd swarzschild0;
#N canvas 32 22 1280 752 disco 0;
#X obj 88 457 *~;
#X obj 86 286 noise~;
#X obj 191 788 dac~ 1 2 3 4;
#X obj 269 193 metro;
#X floatatom 304 166 5 0 0 0 - - -;
#X obj 269 166 tgl 15 0 empty empty empty 0 -6 0 8 -262144 -1 -1 0
1;
#X obj 308 235 del;
#X obj 154 357 line~;
#X obj 154 381 abs~;
#X obj 153 409 *~ -1;
#X obj 152 433 +~ 1;
#X obj 211 458 *~;
#X obj 277 358 line~;
#X obj 277 382 abs~;
#X obj 276 410 *~ -1;
#X obj 275 434 +~ 1;
#X obj 320 459 *~;
#X obj 386 359 line~;
#X obj 386 383 abs~;
#X obj 385 411 *~ -1;
#X obj 384 435 +~ 1;
#X obj 422 459 *~;
#X obj 488 359 line~;
#X obj 488 383 abs~;
#X obj 487 411 *~ -1;
#X obj 382 261 del;
#X obj 401 231 / 4;
#X obj 485 287 del;
#X obj 504 257 / 4;
#X obj 154 308 f;
#X obj 277 309 f;
#X obj 386 310 f;
#X obj 488 312 f;
#X text 359 161 speed;
#X text 546 373 creates back and forth movement;
#X text 547 395 between 0 and 1;
#X obj 286 128 hsl 128 30 0 2000 0 0 empty empty empty -2 -8 0 10 -262144
-1 -1 0 1;
#X obj 444 194 / 2;
#X obj 327 205 / 4;
#X obj 486 435 +~ 2;
#X text 557 489 3.9.3.1. Spatial Quadro;
#X obj 831 8 vsl 50 128 0 0.1 0 0 empty empty empty 0 -9 0 10 -260097
-1 -1 0 1;
#X text 611 526 www.pd-tutorial.com;
#X text 699 489 Johannes Kreidler;
#X obj 87 323 *~ 0.2;
#X obj 969 631 +~;
#X obj 968 583 +~;
#X obj 968 608 +~;
#X obj 1092 566 +~;
#X obj 969 662 +~;
#X obj 970 685 +~;
#X obj 968 562 +~;
#X obj 1199 708 osc~ 493.883;
#X obj 1168 480 +~;
#X obj 1079 478 +~;
#X obj 977 450 +~;
#X text 1101 399 comment;
#X obj 939 480 +~;
#X obj 894 458 +~;
#X obj 939 511 +~;
#X obj 969 540 +~;
#X obj 1115 695 osc~ 379.91;
#X obj 1196 602 osc~ 292.238;
#X obj 1096 598 osc~ 224.798;
#X obj 1181 519 osc~ 172.922;
#X obj 1093 519 osc~ 133.017;
#X obj 1169 428 osc~ 102.321;
#X obj 1079 407 osc~ 78.708;
#X obj 977 389 osc~ 60.544;
#X obj 894 389 osc~ 46.572;
#X obj 1115 734 +~;
#X obj 1196 656 +~;
#X obj 1095 656 +~;
#X obj 1182 568 +~;
#X obj 1198 752 +~;
#X obj 909 422 osc~ 47;
#X obj 992 423 osc~ 61;
#X obj 1184 450 osc~ 103;
#X obj 1108 538 osc~ 134;
#X obj 1196 542 osc~ 173;
#X obj 1113 620 osc~ 225;
#X obj 1212 625 osc~ 293;
#X obj 1134 715 osc~ 380;
#X obj 1212 728 osc~ 494;
#X obj 1094 439 osc~ 79;
#X text 867 339 Babel [493.883 hz/ 1.3];
#N canvas 189 75 660 424 chord 0;
#X obj 87 97 -~ 0.5;
#X obj 87 146 clip~ -0.5 0.5;
#X obj 87 169 cos~;
#X obj 91 315 outlet~;
#X obj 221 97 -~ 0.5;
#X obj 221 146 clip~ -0.5 0.5;
#X obj 221 169 cos~;
#X obj 356 100 -~ 0.5;
#X obj 356 149 clip~ -0.5 0.5;
#X obj 356 172 cos~;
#X obj 491 100 -~ 0.5;
#X obj 491 149 clip~ -0.5 0.5;
#X obj 491 172 cos~;
#X text 147 32 test sound for phaser;
#X obj 91 285 *~ 0.3;
#X obj 87 122 *~ 1;
#X obj 221 122 *~ 1;
#X obj 356 125 *~ 1;
#X obj 491 125 *~ 1;
#X obj 91 252 hip~ 3;
#X obj 87 74 phasor~ 79;
#X obj 221 74 phasor~ 81;
#X obj 356 77 phasor~ 83;
#X obj 491 77 phasor~ 85;
#X connect 0 0 15 0;
#X connect 1 0 2 0;
#X connect 2 0 19 0;
#X connect 4 0 16 0;
#X connect 5 0 6 0;
#X connect 6 0 19 0;
#X connect 7 0 17 0;
#X connect 8 0 9 0;
#X connect 9 0 19 0;
#X connect 10 0 18 0;
#X connect 11 0 12 0;
#X connect 12 0 19 0;
#X connect 14 0 3 0;
#X connect 15 0 1 0;
#X connect 16 0 5 0;
#X connect 17 0 8 0;
#X connect 18 0 11 0;
#X connect 19 0 14 0;
#X connect 20 0 0 0;
#X connect 21 0 4 0;
#X connect 22 0 7 0;
#X connect 23 0 10 0;
#X restore 487 496 pd chord;
#X obj 509 550 rpole~;
#X obj 509 525 rzero_rev~;
#X obj 509 599 rpole~;
#X obj 509 574 rzero_rev~;
#X obj 509 647 rpole~;
#X obj 509 622 rzero_rev~;
#X obj 509 696 rpole~;
#X obj 509 671 rzero_rev~;
#X obj 486 726 +~;
#X obj 664 642 phasor~ 0.3;
#X obj 664 674 expr~ 1 - 0.03 - 0.6*abs($v1-0.5)*abs($v1-0.5);
#X text 565 463 CORPUS INMATERIAL \, Miguel Oliveros et al. Madrid
2014;
#X floatatom 647 158 5 0 0 0 - - -;
#X obj 647 176 osc~ \$1;
#X obj 650 124 hsl 128 30 0 2218 0 0 empty empty empty -2 -8 0 10 -262144
-1 -1 0 1;
#X obj 657 212 *~;
#X msg 154 334 -1 \, 1 \$1;
#X msg 277 335 -1 \, 1 \$1;
#X msg 386 336 -1 \, 1 \$1;
#X msg 488 336 -1 \, 1 \$1;
#X obj 959 714 *~ 0.01;
#X obj 378 655 *~ 0.01;
#X obj 1095 -85 +~;
#X obj 1096 -364 +~;
#X obj 1096 -213 +~;
#X obj 1095 117 +~;
#X obj 1095 90 +~;
#X obj 1096 142 +~;
#X obj 981 -75 +~;
#X obj 981 -363 +~;
#X obj 997 -271 +~;
#X obj 995 -140 +~;
#X obj 981 -224 +~;
#X obj 994 12 +~;
#X obj 980 130 +~;
#X obj 995 -392 osc~ 35;
#X obj 997 -325 osc~ 69.2957;
#X obj 1011 -301 osc~ 70;
#X obj 995 -201 osc~ 138.591;
#X obj 1010 -180 osc~ 139;
#X obj 994 -51 osc~ 277.183;
#X obj 1011 -30 osc~ 278;
#X obj 1111 -390 osc~ 555;
#X obj 1111 -267 +~;
#X obj 1111 -320 osc~ 1108.73;
#X obj 1126 -293 osc~ 1109;
#X obj 1111 -117 +~;
#X obj 1111 -170 osc~ 2217.46;
#X obj 1126 -143 osc~ 2218;
#X text 1173 -36 ALL Hz in D♭;
#X text 1174 -15 [Hz= 190.533 / 1.618];
#N canvas 0 22 796 453 (subpatch) 0;
#X array array1 100 float 3;
#A 0 0.000153184 0.00016427 0.000175834 0.000148535 0.000172019 0.000225186
0.000217199 0.000225067 0.000185847 0.000175595 0.000168443 0.000231385
0.000153542 0.000193477 0.000170112 0.000151038 0.000198603 0.000185847
0.000133991 0.000155926 0.000146627 0.000144124 0.000174403 0.000147104
0.00016427 0.000137925 8.4877e-005 8.28505e-005 8.4281e-005 0.000104308
9.95398e-005 3.6478e-005 2.96831e-005 8.80957e-005 6.92606e-005 7.76052e-005
8.46386e-006 1.87159e-005 7.4625e-005 9.02414e-005 4.97103e-005 -5.96046e-007
2.88486e-005 1.19209e-007 -1.44243e-005 -1.35899e-005 -2.41995e-005
-4.55379e-005 -9.89437e-006 -8.61883e-005 -4.23193e-005 -3.43323e-005
-4.29153e-006 -4.19617e-005 -6.38962e-005 2.5034e-006 -2.38419e-005
-6.31809e-005 -4.78029e-005 -5.44786e-005 -5.07832e-005 -6.4373e-006
-2.70605e-005 -1.85966e-005 -4.97103e-005 -2.83718e-005 -8.98838e-005
-3.6478e-005 -6.30617e-005 -1.28746e-005 -1.19209e-005 -2.99215e-005
-3.27826e-005 -6.83069e-005 3.69549e-006 -4.00543e-005 -5.00679e-006
-2.06232e-005 -2.31266e-005 -3.91006e-005 -1.65701e-005 4.1008e-005
2.95639e-005 -1.26362e-005 -2.86102e-006 -2.07424e-005 -3.18289e-005
-1.81198e-005 -9.41753e-006 2.70605e-005 1.01328e-005 1.88351e-005
2.6226e-006 -6.67572e-006 2.74181e-005 -2.31266e-005 2.92063e-005 1.51396e-005
1.19209e-006 -3.26633e-005;
#X coords 0 1 99 -1 200 140 1;
#X restore -304 -326 graph;
#X obj -412 -237 tabwrite~ array1;
#X obj -412 -279 bng 15 250 50 0 empty empty empty 17 7 0 10 -262144
-1 -1;
#X obj -557 -149 threshold~ 1 3000 0.1 1000;
#X text -346 -259 msec.;
#X text -706 -243 input sensitivity mic;
#X obj -412 -258 metro 160;
#X obj -641 312 freeverb~;
#X msg -662 -198 roomsize \$1;
#X msg -662 -153 damping \$1;
#X msg -660 -101 width \$1;
#X msg -660 -57 wet \$1;
#X msg -660 -13 dry \$1;
#X msg -451 -28 print;
#X msg -557 -66 freeze \$1;
#X msg -546 -8 bypass \$1;
#X obj -546 -27 tgl 15 0 empty empty empty 0 -6 0 8 -262144 -1 -1 0
1;
#X obj -557 -86 tgl 15 0 empty empty empty 0 -6 0 8 -262144 -1 -1 0
1;
#X obj -648 -36 hsl 60 18 0 1 0 1 empty empty dry 2 9 1 12 -225271
-1 -1 2000 0;
#X obj -648 -80 hsl 60 18 0 1 0 1 empty empty wet 2 9 1 12 -225271
-1 -1 3000 0;
#X obj -650 -132 hsl 60 18 0 1 0 1 empty empty width 2 9 1 12 -262131
-1 -1 2000 0;
#X obj -650 -176 hsl 60 18 0 2 0 1 empty empty damping 2 9 1 12 -261689
-1 -1 1300 0;
#X obj -645 -222 hsl 60 18 0.11 1.1 0 1 empty empty roomsize 2 9 1
12 -261689 -1 -1 4300 0;
#X floatatom -680 -217 3 0 0 0 - - -;
#X floatatom -680 -172 3 0 0 0 - - -;
#X floatatom -680 -127 3 0 0 0 - - -;
#X floatatom -678 -76 3 0 0 0 - - -;
#X floatatom -678 -32 3 0 0 0 - - -;
#X text -475 -105 msec.;
#X obj -205 -2 fiddle~;
#X obj -205 50 moses 60;
#X obj -469 91 bng 15 250 50 0 empty empty empty 17 7 0 10 -262144
-1 -1;
#X obj -396 92 bng 15 250 50 0 empty empty empty 17 7 0 10 -262144
-1 -1;
#X floatatom -205 22 5 0 0 0 - - -;
#X msg -469 156 freeze \$1;
#X obj -469 137 tgl 15 0 empty empty empty 0 -6 0 8 -262144 -1 -1 0
1;
#X msg -396 157 freeze \$1;
#X obj -396 138 tgl 15 0 empty empty empty 0 -6 0 8 -262144 -1 -1 0
1;
#X obj -469 115 metro 3500;
#X obj -396 114 metro 3500;
#X obj -557 -126 bng 15 250 50 0 empty empty empty 17 7 0 10 -262144
-1 -1;
#X obj -557 -106 metro 2500;
#X obj -322 90 bng 15 250 50 0 empty empty empty 17 7 0 10 -262144
-1 -1;
#X obj -249 91 bng 15 250 50 0 empty empty empty 17 7 0 10 -262144
-1 -1;
#X msg -322 155 freeze \$1;
#X obj -322 136 tgl 15 0 empty empty empty 0 -6 0 8 -262144 -1 -1 0
1;
#X msg -249 156 freeze \$1;
#X obj -249 137 tgl 15 0 empty empty empty 0 -6 0 8 -262144 -1 -1 0
1;
#X obj -322 114 metro 1500;
#X obj -249 113 metro 1500;
#X obj -505 183 bng 15 250 50 0 empty empty empty 17 7 0 10 -262144
-1 -1;
#X obj -432 184 bng 15 250 50 0 empty empty empty 17 7 0 10 -262144
-1 -1;
#X msg -505 248 freeze \$1;
#X obj -505 229 tgl 15 0 empty empty empty 0 -6 0 8 -262144 -1 -1 0
1;
#X msg -432 249 freeze \$1;
#X obj -432 230 tgl 15 0 empty empty empty 0 -6 0 8 -262144 -1 -1 0
1;
#X obj -505 207 metro 5000;
#X obj -432 206 metro 5000;
#X obj -330 188 bng 15 250 50 0 empty empty empty 17 7 0 10 -262144
-1 -1;
#X obj -257 189 bng 15 250 50 0 empty empty empty 17 7 0 10 -262144
-1 -1;
#X msg -330 253 freeze \$1;
#X obj -330 234 tgl 15 0 empty empty empty 0 -6 0 8 -262144 -1 -1 0
1;
#X msg -257 254 freeze \$1;
#X obj -257 235 tgl 15 0 empty empty empty 0 -6 0 8 -262144 -1 -1 0
1;
#X obj -330 212 metro 1000;
#X obj -257 211 metro 1000;
#X floatatom -156 23 5 0 0 0 - - -;
#X floatatom -108 23 5 0 0 0 - - -;
#X floatatom -56 21 5 0 0 0 - - -;
#X obj -88 91 bng 15 250 50 0 empty empty empty 17 7 0 10 -262144 -1
-1;
#X msg -88 156 freeze \$1;
#X obj -88 137 tgl 15 0 empty empty empty 0 -6 0 8 -262144 -1 -1 0
1;
#X obj -96 189 bng 15 250 50 0 empty empty empty 17 7 0 10 -262144
-1 -1;
#X msg -96 254 freeze \$1;
#X obj -96 235 tgl 15 0 empty empty empty 0 -6 0 8 -262144 -1 -1 0
1;
#X obj -96 211 metro 1000;
#X obj -158 93 bng 15 250 50 0 empty empty empty 17 7 0 10 -262144
-1 -1;
#X msg -158 158 freeze \$1;
#X obj -158 139 tgl 15 0 empty empty empty 0 -6 0 8 -262144 -1 -1 0
1;
#X obj -166 191 bng 15 250 50 0 empty empty empty 17 7 0 10 -262144
-1 -1;
#X msg -166 256 freeze \$1;
#X obj -166 237 tgl 15 0 empty empty empty 0 -6 0 8 -262144 -1 -1 0
1;
#X obj -166 213 metro 1000;
#X obj -158 115 metro 5000;
#X obj -88 113 metro 5000;
#X obj 60 91 bng 15 250 50 0 empty empty empty 17 7 0 10 -262144 -1
-1;
#X msg 60 156 freeze \$1;
#X obj 60 137 tgl 15 0 empty empty empty 0 -6 0 8 -262144 -1 -1 0 1
;
#X obj 52 189 bng 15 250 50 0 empty empty empty 17 7 0 10 -262144 -1
-1;
#X msg 52 254 freeze \$1;
#X obj 52 235 tgl 15 0 empty empty empty 0 -6 0 8 -262144 -1 -1 0 1
;
#X obj 52 211 metro 1000;
#X obj -10 93 bng 15 250 50 0 empty empty empty 17 7 0 10 -262144 -1
-1;
#X msg -10 158 freeze \$1;
#X obj -10 139 tgl 15 0 empty empty empty 0 -6 0 8 -262144 -1 -1 0
1;
#X obj -18 191 bng 15 250 50 0 empty empty empty 17 7 0 10 -262144
-1 -1;
#X msg -18 256 freeze \$1;
#X obj -18 237 tgl 15 0 empty empty empty 0 -6 0 8 -262144 -1 -1 0
1;
#X obj -18 213 metro 1000;
#X obj -10 115 metro 6000;
#X obj 60 113 metro 6000;
#X obj -558 -177 *~ 1;
#X text -407 19 D♭ Midi number: 38 \, 50 \, 62 \, 74>>;
#X msg -66 528 start;
#X msg -211 478 stop;
#X msg -252 478 print;
#X text -222 523 1;
#X text -83 524 2;
#X obj -377 577 delwrite~ delayRight 4000;
#X obj -385 641 delread~ delayRight 1500;
#X obj -383 665 delread~ delayLeft 1000;
#X text -213 498 CAMBIAR NOMBRE FICHERO CADA NUEVA REC.;
#X obj -375 602 delwrite~ delayLeft 4000;
#X text 250 162 ON;
#X text 159 -338 fader 1;
#X floatatom 831 165 5 0 0 0 - - -;
#X text 296 108 controlador manual;
#X text 652 103 controlador manual;
#X text 837 143 controlador manual;
#X text -42 -365 FALTA: Potenciar graves para hacer que la voz sea
un flujo...!!!;
#X text -705 -218 0.9;
#X text -705 -174 0.9;
#X text -703 -34 0.3;
#X text -702 -78 0.5;
#X text -703 -128 0.4;
#X obj 311 37 random 2000;
#X obj 311 13 metro 1500;
#X floatatom 311 62 3 0 0 0 - - -;
#X obj -328 -68 adc~ 1 2 3;
#X obj -79 651 writesf~ 4;
#X msg -205 526 open v2.wav;
#X connect 0 0 2 0;
#X connect 0 0 267 0;
#X connect 0 0 267 1;
#X connect 0 0 267 2;
#X connect 0 0 267 3;
#X connect 3 0 6 0;
#X connect 3 0 29 0;
#X connect 4 0 3 1;
#X connect 4 0 26 0;
#X connect 4 0 28 0;
#X connect 4 0 37 0;
#X connect 4 0 38 0;
#X connect 5 0 3 0;
#X connect 6 0 25 0;
#X connect 6 0 30 0;
#X connect 6 0 31 0;
#X connect 6 0 32 0;
#X connect 7 0 8 0;
#X connect 8 0 9 0;
#X connect 9 0 10 0;
#X connect 10 0 0 1;
#X connect 11 0 2 1;
#X connect 11 0 267 1;
#X connect 11 0 267 0;
#X connect 11 0 267 2;
#X connect 11 0 267 3;
#X connect 12 0 13 0;
#X connect 13 0 14 0;
#X connect 14 0 15 0;
#X connect 15 0 11 1;
#X connect 16 0 2 2;
#X connect 16 0 267 2;
#X connect 16 0 267 0;
#X connect 16 0 267 1;
#X connect 16 0 267 3;
#X connect 17 0 18 0;
#X connect 18 0 19 0;
#X connect 19 0 20 0;
#X connect 20 0 16 1;
#X connect 21 0 2 3;
#X connect 21 0 267 3;
#X connect 21 0 267 2;
#X connect 21 0 267 1;
#X connect 21 0 267 0;
#X connect 22 0 23 0;
#X connect 23 0 24 0;
#X connect 24 0 39 0;
#X connect 25 0 27 0;
#X connect 26 0 25 1;
#X connect 28 0 27 1;
#X connect 29 0 103 0;
#X connect 30 0 104 0;
#X connect 31 0 105 0;
#X connect 32 0 106 0;
#X connect 36 0 4 0;
#X connect 37 0 32 1;
#X connect 37 0 31 1;
#X connect 37 0 30 1;
#X connect 37 0 29 1;
#X connect 38 0 6 1;
#X connect 39 0 21 1;
#X connect 41 0 102 1;
#X connect 41 0 253 0;
#X connect 44 0 0 0;
#X connect 44 0 11 0;
#X connect 44 0 16 1;
#X connect 44 0 21 0;
#X connect 45 0 49 0;
#X connect 46 0 47 0;
#X connect 47 0 45 0;
#X connect 48 0 51 1;
#X connect 49 0 50 0;
#X connect 50 0 107 0;
#X connect 51 0 46 0;
#X connect 52 0 74 0;
#X connect 53 0 60 1;
#X connect 54 0 59 1;
#X connect 57 0 59 0;
#X connect 59 0 60 0;
#X connect 60 0 51 0;
#X connect 61 0 70 0;
#X connect 62 0 71 0;
#X connect 63 0 72 0;
#X connect 64 0 73 0;
#X connect 65 0 48 0;
#X connect 66 0 53 0;
#X connect 67 0 54 0;
#X connect 68 0 55 0;
#X connect 69 0 58 0;
#X connect 70 0 49 1;
#X connect 71 0 45 1;
#X connect 72 0 47 1;
#X connect 73 0 46 1;
#X connect 74 0 50 1;
#X connect 75 0 58 1;
#X connect 76 0 55 1;
#X connect 77 0 53 1;
#X connect 78 0 48 1;
#X connect 79 0 73 1;
#X connect 80 0 72 1;
#X connect 81 0 71 1;
#X connect 82 0 70 1;
#X connect 83 0 74 1;
#X connect 84 0 54 1;
#X connect 86 0 88 0;
#X connect 86 0 95 0;
#X connect 87 0 90 0;
#X connect 88 0 87 0;
#X connect 89 0 92 0;
#X connect 90 0 89 0;
#X connect 91 0 94 0;
#X connect 92 0 91 0;
#X connect 93 0 95 1;
#X connect 94 0 93 0;
#X connect 95 0 108 0;
#X connect 96 0 97 0;
#X connect 97 0 88 1;
#X connect 97 0 87 1;
#X connect 97 0 90 1;
#X connect 97 0 89 1;
#X connect 97 0 92 1;
#X connect 97 0 91 1;
#X connect 97 0 94 1;
#X connect 97 0 93 1;
#X connect 99 0 100 0;
#X connect 100 0 102 0;
#X connect 101 0 99 0;
#X connect 102 0 0 0;
#X connect 102 0 11 0;
#X connect 102 0 16 0;
#X connect 102 0 21 0;
#X connect 103 0 7 0;
#X connect 104 0 12 0;
#X connect 105 0 17 0;
#X connect 106 0 22 0;
#X connect 107 0 21 0;
#X connect 107 0 16 0;
#X connect 107 0 11 0;
#X connect 107 0 0 0;
#X connect 108 0 0 0;
#X connect 108 0 11 0;
#X connect 108 0 16 0;
#X connect 108 0 21 0;
#X connect 109 0 113 0;
#X connect 110 0 111 0;
#X connect 111 0 109 0;
#X connect 112 0 114 0;
#X connect 113 0 112 0;
#X connect 114 0 108 0;
#X connect 115 0 121 0;
#X connect 116 0 119 0;
#X connect 117 0 119 1;
#X connect 118 0 115 1;
#X connect 119 0 115 0;
#X connect 120 0 121 1;
#X connect 121 0 108 0;
#X connect 122 0 116 1;
#X connect 123 0 117 0;
#X connect 124 0 117 1;
#X connect 125 0 118 0;
#X connect 126 0 118 1;
#X connect 127 0 120 0;
#X connect 128 0 120 1;
#X connect 129 0 110 1;
#X connect 131 0 130 0;
#X connect 132 0 130 1;
#X connect 134 0 133 0;
#X connect 135 0 133 1;
#X connect 140 0 144 0;
#X connect 141 0 178 0;
#X connect 144 0 139 0;
#X connect 145 0 0 0;
#X connect 145 0 11 0;
#X connect 145 0 16 0;
#X connect 145 0 21 0;
#X connect 145 0 250 0;
#X connect 145 1 0 0;
#X connect 145 1 11 0;
#X connect 145 1 21 0;
#X connect 145 1 246 0;
#X connect 146 0 145 0;
#X connect 147 0 145 0;
#X connect 148 0 145 0;
#X connect 149 0 145 0;
#X connect 150 0 145 0;
#X connect 151 0 145 0;
#X connect 152 0 145 0;
#X connect 153 0 145 0;
#X connect 154 0 153 0;
#X connect 155 0 152 0;
#X connect 156 0 150 0;
#X connect 156 0 165 0;
#X connect 157 0 149 0;
#X connect 157 0 164 0;
#X connect 158 0 148 0;
#X connect 158 0 163 0;
#X connect 159 0 147 0;
#X connect 159 0 162 0;
#X connect 160 0 146 0;
#X connect 160 0 161 0;
#X connect 167 0 171 0;
#X connect 167 1 204 0;
#X connect 167 2 205 0;
#X connect 167 3 206 0;
#X connect 168 0 169 0;
#X connect 168 0 180 0;
#X connect 168 0 214 0;
#X connect 168 0 230 0;
#X connect 168 1 170 0;
#X connect 168 1 181 0;
#X connect 168 1 207 0;
#X connect 168 1 223 0;
#X connect 169 0 176 0;
#X connect 169 0 188 0;
#X connect 170 0 177 0;
#X connect 170 0 189 0;
#X connect 171 0 168 0;
#X connect 172 0 145 0;
#X connect 173 0 172 0;
#X connect 174 0 145 0;
#X connect 175 0 174 0;
#X connect 176 0 173 0;
#X connect 177 0 175 0;
#X connect 178 0 179 0;
#X connect 178 0 154 0;
#X connect 179 0 155 0;
#X connect 180 0 186 0;
#X connect 180 0 196 0;
#X connect 181 0 187 0;
#X connect 181 0 197 0;
#X connect 182 0 145 0;
#X connect 183 0 182 0;
#X connect 184 0 145 0;
#X connect 185 0 184 0;
#X connect 186 0 183 0;
#X connect 187 0 185 0;
#X connect 188 0 194 0;
#X connect 189 0 195 0;
#X connect 190 0 145 0;
#X connect 191 0 190 0;
#X connect 192 0 145 0;
#X connect 193 0 192 0;
#X connect 194 0 191 0;
#X connect 195 0 193 0;
#X connect 196 0 202 0;
#X connect 197 0 203 0;
#X connect 198 0 145 0;
#X connect 199 0 198 0;
#X connect 200 0 145 0;
#X connect 201 0 200 0;
#X connect 202 0 199 0;
#X connect 203 0 201 0;
#X connect 207 0 210 0;
#X connect 207 0 222 0;
#X connect 209 0 208 0;
#X connect 210 0 213 0;
#X connect 211 0 145 0;
#X connect 212 0 211 0;
#X connect 213 0 212 0;
#X connect 214 0 217 0;
#X connect 214 0 221 0;
#X connect 216 0 215 0;
#X connect 217 0 220 0;
#X connect 218 0 145 0;
#X connect 219 0 218 0;
#X connect 220 0 219 0;
#X connect 221 0 216 0;
#X connect 222 0 209 0;
#X connect 223 0 226 0;
#X connect 223 0 238 0;
#X connect 223 0 264 0;
#X connect 225 0 224 0;
#X connect 226 0 229 0;
#X connect 227 0 145 0;
#X connect 228 0 227 0;
#X connect 229 0 228 0;
#X connect 230 0 233 0;
#X connect 230 0 237 0;
#X connect 232 0 231 0;
#X connect 233 0 236 0;
#X connect 234 0 145 0;
#X connect 235 0 234 0;
#X connect 236 0 235 0;
#X connect 237 0 232 0;
#X connect 238 0 225 0;
#X connect 239 0 139 0;
#X connect 239 0 141 0;
#X connect 241 0 267 0;
#X connect 242 0 267 0;
#X connect 243 0 267 0;
#X connect 247 0 2 0;
#X connect 247 0 2 2;
#X connect 247 0 267 1;
#X connect 248 0 2 1;
#X connect 248 0 2 3;
#X connect 248 0 267 0;
#X connect 263 0 265 0;
#X connect 264 0 263 0;
#X connect 265 0 36 0;
#X connect 266 0 167 0;
#X connect 266 0 239 0;
#X connect 266 0 145 0;
#X connect 266 0 145 1;
#X connect 266 1 145 0;
#X connect 266 1 145 1;
#X connect 266 2 145 1;
#X connect 266 2 145 0;
#X connect 268 0 267 0;
#X restore 116 -425 pd disco de acrecion;
#X obj 35 -366 dsp;
#X obj 35 -404 tgl 30 0 empty empty empty 17 7 0 10 -4034 -1 -1 1 1
;
#X floatatom 35 -317 5 0 0 0 - - -;
#X floatatom 50 -340 5 0 0 0 - - -;
#X connect 5 0 7 0;
#X connect 5 1 8 0;
#X connect 6 0 5 0;
