#N canvas 559 49 353 190 10;
#N canvas 876 177 375 255 startup 0;
#X obj 22 24 loadbang;
#X obj 22 48 bng 15 250 50 0 empty empty empty 0 -6 0 8 -262144 -1
-1;
#X obj 22 67 f \$0;
#X text 35 195 This subpatch loads initial;
#X text 31 219 values in number boxes.;
#X msg 22 91 \; \$1-pole 80;
#X connect 0 0 1 0;
#X connect 1 0 2 0;
#X connect 2 0 5 0;
#X restore 233 -395 pd startup;
#X obj 981 -416 osc~ 34.6478;
#X obj 1096 -415 osc~ 554.365;
#N canvas 0 22 1280 700 swarzschild0 0;
#X obj 326 201 qlist;
#X msg 246 148 clear;
#X floatatom 841 52 8 0 0 0 - - -;
#X floatatom 994 56 8 0 0 0 - - -;
#X obj 831 -13 r x;
#X obj 1000 -12 r y;
#X floatatom 1098 54 8 0 0 0 - - -;
#X floatatom 1185 57 8 0 0 0 - - -;
#X obj 1088 -11 r r;
#X obj 1191 -11 r t_rel;
#X floatatom 913 55 8 0 0 0 - - -;
#X obj 919 -13 r phi;
#X obj 43 -16 dsp;
#X obj 44 -48 tgl 15 0 empty empty empty 17 7 0 10 -262144 -1 -1 1
1;
#X floatatom 26 34 5 0 0 0 - - -;
#X floatatom 86 33 5 0 0 0 - - -;
#X msg 345 141 bang;
#X floatatom 836 230 8 0 0 0 - - -;
#X floatatom 1129 233 8 0 0 0 - - -;
#X floatatom 1031 233 8 0 0 0 - - -;
#X floatatom 943 233 8 0 0 0 - - -;
#X obj 915 160 expr sqrt(pow(($f1+1) \, 2)+pow(($f2+1) \, 2)) \; sqrt(pow(($f1-1)
\, 2)+pow(($f2+1) \, 2)) \; sqrt(pow(($f1-1) \, 2)+pow(($f2-1) \, 2))
\; sqrt(pow(($f1+1) \, 2)+pow(($f2-1) \, 2)) \;;
#X floatatom 841 357 8 0 0 0 - - -;
#X floatatom 1051 355 8 0 0 0 - - -;
#X floatatom 981 356 8 0 0 0 - - -;
#X floatatom 910 356 8 0 0 0 - - -;
#X obj 757 394 *~;
#X obj 755 448 *~;
#X obj 762 500 *~;
#X obj 764 553 *~;
#X obj 709 634 dac~ 1 2 3 4;
#X obj 1144 327 expr max($f1 \, $f2) \;;
#X obj 1144 367 expr max($f1 \, $f2) \;;
#X obj 1142 405 expr max($f1 \, $f2) \;;
#X floatatom 1170 446 8 0 0 0 - - -;
#X floatatom 846 471 8 0 0 0 - - -;
#X floatatom 1062 470 8 0 0 0 - - -;
#X floatatom 986 470 8 0 0 0 - - -;
#X floatatom 915 470 8 0 0 0 - - -;
#X msg 279 76 read b_\$1.txt;
#X floatatom 330 44 5 0 0 0 - - -;
#X msg 412 -20 bang;
#X obj 439 12 bng 15 250 50 0 empty empty empty 17 7 0 10 -262144 -1
-1;
#X obj 271 10 random 251;
#X floatatom 624 292 5 0 0 0 - - -;
#X obj 398 309 line~;
#X obj 686 587 *~;
#X obj 595 588 *~;
#X obj 625 588 *~;
#X obj 655 588 *~;
#X msg 384 205 0;
#X floatatom 476 58 7 0 0 0 - - -;
#X obj 462 117 bng 15 250 50 0 empty empty empty 17 7 0 10 -262144
-1 -1;
#X obj 434 84 delay;
#X obj 559 164 select 0 1;
#X floatatom 692 151 5 0 0 0 - - -;
#X obj 757 102 expr $f1<2.2;
#X msg 471 251 0 500;
#X msg 426 205 1 500;
#X floatatom 312 283 7 0 0 0 - - -;
#X obj 282 319 bng 15 250 50 0 empty empty empty 17 7 0 10 -262144
-1 -1;
#X obj 254 286 delay;
#X obj 476 26 ii 600;
#X obj 314 252 ii 500;
#X obj 664 102 expr $f1>16;
#X floatatom 1145 276 8 0 0 0 - - -;
#X obj 1211 244 ii 2;
#X floatatom 1199 487 8 0 0 0 - - -;
#X obj 1251 448 hsl 128 15 1 30 0 0 empty empty empty -2 -8 0 10 -262144
-1 -1 8700 1;
#X obj 937 396 expr $f1/(1.1*$f5) \; $f2/(1.1*$f5) \; $f3/(1.1*$f5)
\; $f4/(1.1*$f5) \;;
#X obj 844 274 expr pow($f1-sqrt(8) \, $f5)/pow(8 \, $f5/2) \; pow($f2-sqrt(8)
\, $f5)/pow(8 \, $f5/2) \; pow($f3-sqrt(8) \, $f5)/pow(8 \, $f5/2)
\; pow($f4-sqrt(8) \, $f5)/pow(8 \, $f5/2) \;;
#X obj 1070 434 expr $f1*$f2;
#X text 1275 477 volumen INVERSO;
#X obj 624 318 osc~ \$1;
#X obj 596 419 freeverb~;
#X msg 69 156 roomsize \$1;
#X msg 69 201 damping \$1;
#X msg 69 245 width \$1;
#X msg 69 289 wet \$1;
#X msg 69 333 dry \$1;
#X msg 103 356 print;
#X msg 122 395 freeze \$1;
#X msg 127 432 bypass \$1;
#X obj 127 413 tgl 15 0 empty empty empty 0 -6 0 8 -262144 -1 -1 0
1;
#X obj 122 376 tgl 15 0 empty empty empty 0 -6 0 8 -262144 -1 -1 0
1;
#X obj 81 310 hsl 60 18 0 1 0 1 empty empty dry 2 9 1 12 -225271 -1
-1 2200 0;
#X obj 81 266 hsl 60 18 0 1 0 1 empty empty wet 2 9 1 12 -225271 -1
-1 3100 0;
#X obj 81 222 hsl 60 18 0 1 0 1 empty empty width 2 9 1 12 -262131
-1 -1 2800 0;
#X obj 81 178 hsl 60 18 0 2 0 1 empty empty damping 2 9 1 12 -261689
-1 -1 2700 0;
#X obj 81 133 hsl 60 18 0.11 1.1 0 1 empty empty roomsize 2 9 1 12
-261689 -1 -1 4800 0;
#X floatatom 51 137 3 0 0 0 - - -;
#X floatatom 51 182 3 0 0 0 - - -;
#X floatatom 51 227 3 0 0 0 - - -;
#X floatatom 51 270 3 0 0 0 - - -;
#X floatatom 51 314 3 0 0 0 - - -;
#X obj 575 218 vsl 15 128 0 493.883 0 0 empty empty empty 0 -9 0 10
-262144 -1 -1 2343 1;
#X obj 966 605 delread~ delayosc 1500;
#X obj 964 575 delwrite~ delayosc 15000;
#X obj 624 269 expr (293.883+$f2)*$f1 \;;
#X text 18 133 0.9;
#X text 18 177 0.9;
#X text 20 317 0.3;
#X text 21 273 0.5;
#X text 20 223 0.4;
#X connect 0 1 61 0;
#X connect 1 0 0 0;
#X connect 2 0 21 0;
#X connect 3 0 21 1;
#X connect 4 0 2 0;
#X connect 5 0 3 0;
#X connect 6 0 56 0;
#X connect 6 0 64 0;
#X connect 7 0 98 0;
#X connect 8 0 6 0;
#X connect 9 0 7 0;
#X connect 11 0 10 0;
#X connect 12 0 14 0;
#X connect 12 1 15 0;
#X connect 13 0 12 0;
#X connect 16 0 0 0;
#X connect 17 0 70 0;
#X connect 18 0 70 3;
#X connect 19 0 70 2;
#X connect 20 0 70 1;
#X connect 21 0 17 0;
#X connect 21 1 20 0;
#X connect 21 2 19 0;
#X connect 21 3 18 0;
#X connect 22 0 31 0;
#X connect 22 0 69 0;
#X connect 23 0 33 1;
#X connect 23 0 69 3;
#X connect 24 0 32 1;
#X connect 24 0 69 2;
#X connect 25 0 31 1;
#X connect 25 0 69 1;
#X connect 26 0 47 1;
#X connect 27 0 48 1;
#X connect 28 0 49 1;
#X connect 29 0 46 1;
#X connect 31 0 32 0;
#X connect 32 0 33 0;
#X connect 33 0 34 0;
#X connect 34 0 71 0;
#X connect 35 0 26 1;
#X connect 36 0 29 1;
#X connect 37 0 28 1;
#X connect 38 0 27 1;
#X connect 39 0 0 0;
#X connect 39 0 16 0;
#X connect 40 0 98 1;
#X connect 41 0 42 0;
#X connect 41 0 43 0;
#X connect 41 0 50 0;
#X connect 41 0 53 0;
#X connect 43 0 39 0;
#X connect 43 0 40 0;
#X connect 44 0 73 0;
#X connect 45 0 47 0;
#X connect 45 0 48 0;
#X connect 45 0 49 0;
#X connect 45 0 46 0;
#X connect 46 0 30 3;
#X connect 47 0 30 0;
#X connect 48 0 30 1;
#X connect 49 0 30 2;
#X connect 50 0 45 0;
#X connect 51 0 53 1;
#X connect 53 0 58 0;
#X connect 53 0 52 0;
#X connect 54 1 57 0;
#X connect 56 0 55 0;
#X connect 56 0 54 0;
#X connect 57 0 45 0;
#X connect 58 0 45 0;
#X connect 59 0 61 1;
#X connect 61 0 60 0;
#X connect 61 0 41 0;
#X connect 62 0 51 0;
#X connect 63 0 59 0;
#X connect 64 0 54 0;
#X connect 64 0 55 0;
#X connect 65 0 70 4;
#X connect 66 0 65 0;
#X connect 67 0 71 1;
#X connect 68 0 67 0;
#X connect 69 0 35 0;
#X connect 69 1 38 0;
#X connect 69 2 37 0;
#X connect 69 3 36 0;
#X connect 70 0 22 0;
#X connect 70 1 25 0;
#X connect 70 2 24 0;
#X connect 70 3 23 0;
#X connect 71 0 69 4;
#X connect 73 0 97 0;
#X connect 73 0 74 0;
#X connect 73 0 74 1;
#X connect 74 0 26 0;
#X connect 74 0 27 0;
#X connect 74 0 28 0;
#X connect 74 0 29 0;
#X connect 75 0 74 0;
#X connect 76 0 74 0;
#X connect 77 0 74 0;
#X connect 78 0 74 0;
#X connect 79 0 74 0;
#X connect 80 0 74 0;
#X connect 81 0 74 0;
#X connect 82 0 74 0;
#X connect 83 0 82 0;
#X connect 84 0 81 0;
#X connect 85 0 79 0;
#X connect 85 0 94 0;
#X connect 86 0 78 0;
#X connect 86 0 93 0;
#X connect 87 0 77 0;
#X connect 87 0 92 0;
#X connect 88 0 76 0;
#X connect 88 0 91 0;
#X connect 89 0 75 0;
#X connect 89 0 90 0;
#X connect 95 0 44 0;
#X connect 96 0 74 1;
#X connect 96 0 74 0;
#X connect 98 0 44 0;
#X connect 98 0 95 0;
#X restore 115 -394 pd swarzschild0;
#N canvas 30 41 1280 700 disco 1;
#X obj 88 457 *~;
#X obj 269 193 metro;
#X floatatom 304 166 5 0 0 0 - - -;
#X obj 269 166 tgl 15 0 empty empty empty 0 -6 0 8 -262144 -1 -1 1
1;
#X obj 308 235 del;
#X obj 154 357 line~;
#X obj 154 381 abs~;
#X obj 153 409 *~ -1;
#X obj 152 433 +~ 1;
#X obj 211 458 *~;
#X obj 277 358 line~;
#X obj 277 382 abs~;
#X obj 276 410 *~ -1;
#X obj 275 434 +~ 1;
#X obj 320 459 *~;
#X obj 386 359 line~;
#X obj 386 383 abs~;
#X obj 385 411 *~ -1;
#X obj 384 435 +~ 1;
#X obj 422 459 *~;
#X obj 488 359 line~;
#X obj 488 383 abs~;
#X obj 487 411 *~ -1;
#X obj 382 261 del;
#X obj 401 231 / 4;
#X obj 485 287 del;
#X obj 504 257 / 4;
#X obj 154 308 f;
#X obj 277 309 f;
#X obj 386 310 f;
#X obj 488 312 f;
#X text 359 161 speed;
#X obj 286 128 hsl 128 30 0 2000 0 0 empty empty empty -2 -8 0 10 -262144
-1 -1 2127 1;
#X obj 444 194 / 2;
#X obj 327 205 / 4;
#X obj 486 435 +~ 2;
#X obj 831 8 vsl 50 128 0 0.1 0 0 empty empty empty 0 -9 0 10 -260097
-1 -1 0 1;
#X floatatom 647 137 5 0 0 0 - - -;
#X obj 647 176 osc~ \$1;
#X obj 650 103 hsl 128 30 0 2218 0 0 empty empty empty -2 -8 0 10 -262144
-1 -1 0 1;
#X obj 657 212 *~;
#X msg 154 334 -1 \, 1 \$1;
#X msg 277 335 -1 \, 1 \$1;
#X msg 386 336 -1 \, 1 \$1;
#X msg 488 336 -1 \, 1 \$1;
#N canvas 0 22 796 453 (subpatch) 0;
#X array array1 100 float 3;
#A 0 0.00023067 0.000214934 8.04663e-05 0.000129461 0.000108361 7.58171e-05
0.00010407 0.000113368 0.000207424 0.000194192 8.76188e-05 1.50204e-05
0.000176311 0.000272155 0.000174522 0.000130892 0.000184178 9.47714e-05
0.000266433 0.000312209 0.000295043 0.000206709 0.000226736 0.000195622
0.000248551 0.000297546 0.000286102 0.00032115 0.000190258 0.000293612
0.000205994 0.000370145 0.000267863 0.000302553 0.000210643 0.000251412
0.000211358 0.000242472 0.000291824 0.000164151 0.000265002 0.00024569
0.000173092 0.00027287 0.000255346 0.0002321 0.000247478 0.000201344
0.000278592 0.000307202 0.000323296 0.000326514 0.000243902 0.000365138
0.000312567 0.000349402 0.000349402 0.000441313 0.000424504 0.000377655
0.00035584 0.000383019 0.000527859 0.000483513 0.000340104 0.000319719
0.000418425 0.000317574 0.000378013 0.000392675 0.000319004 0.000368714
0.000492096 0.000433445 0.000459194 0.000453472 0.00052464 0.00042665
0.000323296 0.000492811 0.000416994 0.000443101 0.000489235 0.000360489
0.000489593 0.00046885 0.000491023 0.000581503 0.00047636 0.00056541
0.000485301 0.000520349 0.000490308 0.000420928 0.000488162 0.000518203
0.000546098 0.000479221 0.000610113 0.000506043;
#X coords 0 1 99 -1 200 140 1;
#X restore -304 -326 graph;
#X obj -412 -237 tabwrite~ array1;
#X obj -412 -279 bng 15 250 50 0 empty empty empty 17 7 0 10 -262144
-1 -1;
#X text -346 -259 msec.;
#X text -706 -243 input sensitivity mic;
#X obj -412 -258 metro 160;
#X obj -641 312 freeverb~;
#X msg -662 -198 roomsize \$1;
#X msg -662 -153 damping \$1;
#X msg -660 -101 width \$1;
#X msg -660 -57 wet \$1;
#X msg -660 -13 dry \$1;
#X msg -546 -8 bypass \$1;
#X obj -546 -27 tgl 15 0 empty empty empty 0 -6 0 8 -262144 -1 -1 0
1;
#X obj -648 -36 hsl 60 18 0 1 0 1 empty empty dry 2 9 1 12 -225271
-1 -1 2000 0;
#X obj -648 -80 hsl 60 18 0 1 0 1 empty empty wet 2 9 1 12 -225271
-1 -1 3100 0;
#X obj -650 -132 hsl 60 18 0 1 0 1 empty empty width 2 9 1 12 -262131
-1 -1 2600 0;
#X obj -650 -176 hsl 60 18 0 2 0 1 empty empty damping 2 9 1 12 -261689
-1 -1 2800 0;
#X obj -645 -222 hsl 60 18 0.11 1.1 0 1 empty empty roomsize 2 9 1
12 -261689 -1 -1 4300 0;
#X floatatom -680 -217 3 0 0 0 - - -;
#X floatatom -680 -172 3 0 0 0 - - -;
#X floatatom -680 -127 3 0 0 0 - - -;
#X floatatom -678 -76 3 0 0 0 - - -;
#X floatatom -678 -32 3 0 0 0 - - -;
#X obj -205 -2 fiddle~;
#X obj -205 50 moses 60;
#X obj -469 91 bng 15 250 50 0 empty empty empty 17 7 0 10 -262144
-1 -1;
#X obj -396 92 bng 15 250 50 0 empty empty empty 17 7 0 10 -262144
-1 -1;
#X floatatom -205 22 5 0 0 0 - - -;
#X msg -469 156 freeze \$1;
#X obj -469 137 tgl 15 0 empty empty empty 0 -6 0 8 -262144 -1 -1 0
1;
#X msg -396 157 freeze \$1;
#X obj -396 138 tgl 15 0 empty empty empty 0 -6 0 8 -262144 -1 -1 1
1;
#X obj -469 115 metro 3500;
#X obj -396 114 metro 3500;
#X obj -322 90 bng 15 250 50 0 empty empty empty 17 7 0 10 -262144
-1 -1;
#X obj -249 91 bng 15 250 50 0 empty empty empty 17 7 0 10 -262144
-1 -1;
#X msg -322 155 freeze \$1;
#X obj -322 136 tgl 15 0 empty empty empty 0 -6 0 8 -262144 -1 -1 1
1;
#X msg -249 156 freeze \$1;
#X obj -249 137 tgl 15 0 empty empty empty 0 -6 0 8 -262144 -1 -1 0
1;
#X obj -322 114 metro 1500;
#X obj -249 113 metro 1500;
#X obj -505 183 bng 15 250 50 0 empty empty empty 17 7 0 10 -262144
-1 -1;
#X obj -432 184 bng 15 250 50 0 empty empty empty 17 7 0 10 -262144
-1 -1;
#X msg -505 248 freeze \$1;
#X obj -505 229 tgl 15 0 empty empty empty 0 -6 0 8 -262144 -1 -1 1
1;
#X msg -432 249 freeze \$1;
#X obj -432 230 tgl 15 0 empty empty empty 0 -6 0 8 -262144 -1 -1 0
1;
#X obj -505 207 metro 5000;
#X obj -432 206 metro 5000;
#X obj -330 188 bng 15 250 50 0 empty empty empty 17 7 0 10 -262144
-1 -1;
#X obj -257 189 bng 15 250 50 0 empty empty empty 17 7 0 10 -262144
-1 -1;
#X msg -330 253 freeze \$1;
#X obj -330 234 tgl 15 0 empty empty empty 0 -6 0 8 -262144 -1 -1 0
1;
#X msg -257 254 freeze \$1;
#X obj -257 235 tgl 15 0 empty empty empty 0 -6 0 8 -262144 -1 -1 1
1;
#X obj -330 212 metro 1000;
#X obj -257 211 metro 1000;
#X floatatom -156 23 5 0 0 0 - - -;
#X floatatom -108 23 5 0 0 0 - - -;
#X floatatom -56 21 5 0 0 0 - - -;
#X obj -88 91 bng 15 250 50 0 empty empty empty 17 7 0 10 -262144 -1
-1;
#X msg -88 156 freeze \$1;
#X obj -88 137 tgl 15 0 empty empty empty 0 -6 0 8 -262144 -1 -1 0
1;
#X obj -96 189 bng 15 250 50 0 empty empty empty 17 7 0 10 -262144
-1 -1;
#X msg -96 254 freeze \$1;
#X obj -96 235 tgl 15 0 empty empty empty 0 -6 0 8 -262144 -1 -1 1
1;
#X obj -96 211 metro 1000;
#X obj -158 93 bng 15 250 50 0 empty empty empty 17 7 0 10 -262144
-1 -1;
#X msg -158 158 freeze \$1;
#X obj -158 139 tgl 15 0 empty empty empty 0 -6 0 8 -262144 -1 -1 1
1;
#X obj -166 191 bng 15 250 50 0 empty empty empty 17 7 0 10 -262144
-1 -1;
#X msg -166 256 freeze \$1;
#X obj -166 237 tgl 15 0 empty empty empty 0 -6 0 8 -262144 -1 -1 0
1;
#X obj -166 213 metro 1000;
#X obj -158 115 metro 5000;
#X obj -88 113 metro 5000;
#X obj 60 91 bng 15 250 50 0 empty empty empty 17 7 0 10 -262144 -1
-1;
#X msg 60 156 freeze \$1;
#X obj 60 137 tgl 15 0 empty empty empty 0 -6 0 8 -262144 -1 -1 0 1
;
#X obj 52 189 bng 15 250 50 0 empty empty empty 17 7 0 10 -262144 -1
-1;
#X msg 52 254 freeze \$1;
#X obj 52 235 tgl 15 0 empty empty empty 0 -6 0 8 -262144 -1 -1 1 1
;
#X obj 52 211 metro 1000;
#X obj -10 93 bng 15 250 50 0 empty empty empty 17 7 0 10 -262144 -1
-1;
#X msg -10 158 freeze \$1;
#X obj -10 139 tgl 15 0 empty empty empty 0 -6 0 8 -262144 -1 -1 0
1;
#X obj -18 191 bng 15 250 50 0 empty empty empty 17 7 0 10 -262144
-1 -1;
#X msg -18 256 freeze \$1;
#X obj -18 237 tgl 15 0 empty empty empty 0 -6 0 8 -262144 -1 -1 0
1;
#X obj -18 213 metro 1000;
#X obj -10 115 metro 6000;
#X obj 60 113 metro 6000;
#X text -407 19 D♭ Midi number: 38 \, 50 \, 62 \, 74>>;
#X text 250 162 ON;
#X text 159 -338 fader 1;
#X floatatom 831 165 5 0 0 0 - - -;
#X text 296 108 controlador manual;
#X text 652 82 controlador manual;
#X text 837 143 controlador manual;
#X text -42 -365 FALTA: Potenciar graves para hacer que la voz sea
un flujo...!!!;
#X text -705 -218 0.9;
#X text -705 -174 0.9;
#X text -703 -34 0.3;
#X text -702 -78 0.5;
#X text -703 -128 0.4;
#X obj 311 37 random 2000;
#X obj 311 13 metro 1500;
#X floatatom 311 62 3 0 0 0 - - -;
#X obj -328 -68 adc~ 1 2 3;
#X obj 232 560 dac~ 1 2 3 4;
#X obj 86 286 noise~;
#X obj 87 323 *~ 0.2;
#X obj -358 -39 *~ 3;
#X connect 0 0 156 0;
#X connect 1 0 4 0;
#X connect 1 0 27 0;
#X connect 2 0 1 1;
#X connect 2 0 24 0;
#X connect 2 0 26 0;
#X connect 2 0 33 0;
#X connect 2 0 34 0;
#X connect 3 0 1 0;
#X connect 4 0 23 0;
#X connect 4 0 28 0;
#X connect 4 0 29 0;
#X connect 4 0 30 0;
#X connect 5 0 6 0;
#X connect 6 0 7 0;
#X connect 7 0 8 0;
#X connect 8 0 0 1;
#X connect 9 0 156 1;
#X connect 10 0 11 0;
#X connect 11 0 12 0;
#X connect 12 0 13 0;
#X connect 13 0 9 1;
#X connect 14 0 156 2;
#X connect 15 0 16 0;
#X connect 16 0 17 0;
#X connect 17 0 18 0;
#X connect 18 0 14 1;
#X connect 19 0 156 3;
#X connect 20 0 21 0;
#X connect 21 0 22 0;
#X connect 22 0 35 0;
#X connect 23 0 25 0;
#X connect 24 0 23 1;
#X connect 26 0 25 1;
#X connect 27 0 41 0;
#X connect 28 0 42 0;
#X connect 29 0 43 0;
#X connect 30 0 44 0;
#X connect 32 0 2 0;
#X connect 33 0 30 1;
#X connect 33 0 29 1;
#X connect 33 0 28 1;
#X connect 33 0 27 1;
#X connect 34 0 4 1;
#X connect 35 0 19 1;
#X connect 36 0 40 1;
#X connect 36 0 142 0;
#X connect 37 0 38 0;
#X connect 38 0 40 0;
#X connect 39 0 37 0;
#X connect 40 0 0 0;
#X connect 40 0 9 0;
#X connect 40 0 14 0;
#X connect 40 0 19 0;
#X connect 41 0 5 0;
#X connect 42 0 10 0;
#X connect 43 0 15 0;
#X connect 44 0 20 0;
#X connect 47 0 50 0;
#X connect 50 0 46 0;
#X connect 51 0 0 0;
#X connect 51 0 9 0;
#X connect 51 0 14 0;
#X connect 51 0 19 0;
#X connect 51 1 0 0;
#X connect 51 1 9 0;
#X connect 51 1 19 0;
#X connect 52 0 51 0;
#X connect 53 0 51 0;
#X connect 54 0 51 0;
#X connect 55 0 51 0;
#X connect 56 0 51 0;
#X connect 57 0 51 0;
#X connect 58 0 57 0;
#X connect 59 0 56 0;
#X connect 59 0 68 0;
#X connect 60 0 55 0;
#X connect 60 0 67 0;
#X connect 61 0 54 0;
#X connect 61 0 66 0;
#X connect 62 0 53 0;
#X connect 62 0 65 0;
#X connect 63 0 52 0;
#X connect 63 0 64 0;
#X connect 69 0 73 0;
#X connect 69 1 104 0;
#X connect 69 2 105 0;
#X connect 69 3 106 0;
#X connect 70 0 71 0;
#X connect 70 0 80 0;
#X connect 70 0 114 0;
#X connect 70 0 130 0;
#X connect 70 1 72 0;
#X connect 70 1 81 0;
#X connect 70 1 107 0;
#X connect 70 1 123 0;
#X connect 71 0 78 0;
#X connect 71 0 88 0;
#X connect 72 0 79 0;
#X connect 72 0 89 0;
#X connect 73 0 70 0;
#X connect 74 0 51 0;
#X connect 75 0 74 0;
#X connect 76 0 51 0;
#X connect 77 0 76 0;
#X connect 78 0 75 0;
#X connect 79 0 77 0;
#X connect 80 0 86 0;
#X connect 80 0 96 0;
#X connect 81 0 87 0;
#X connect 81 0 97 0;
#X connect 82 0 51 0;
#X connect 83 0 82 0;
#X connect 84 0 51 0;
#X connect 85 0 84 0;
#X connect 86 0 83 0;
#X connect 87 0 85 0;
#X connect 88 0 94 0;
#X connect 89 0 95 0;
#X connect 90 0 51 0;
#X connect 91 0 90 0;
#X connect 92 0 51 0;
#X connect 93 0 92 0;
#X connect 94 0 91 0;
#X connect 95 0 93 0;
#X connect 96 0 102 0;
#X connect 97 0 103 0;
#X connect 98 0 51 0;
#X connect 99 0 98 0;
#X connect 100 0 51 0;
#X connect 101 0 100 0;
#X connect 102 0 99 0;
#X connect 103 0 101 0;
#X connect 107 0 110 0;
#X connect 107 0 122 0;
#X connect 109 0 108 0;
#X connect 110 0 113 0;
#X connect 111 0 51 0;
#X connect 112 0 111 0;
#X connect 113 0 112 0;
#X connect 114 0 117 0;
#X connect 114 0 121 0;
#X connect 116 0 115 0;
#X connect 117 0 120 0;
#X connect 118 0 51 0;
#X connect 119 0 118 0;
#X connect 120 0 119 0;
#X connect 121 0 116 0;
#X connect 122 0 109 0;
#X connect 123 0 126 0;
#X connect 123 0 138 0;
#X connect 123 0 153 0;
#X connect 125 0 124 0;
#X connect 126 0 129 0;
#X connect 127 0 51 0;
#X connect 128 0 127 0;
#X connect 129 0 128 0;
#X connect 130 0 133 0;
#X connect 130 0 137 0;
#X connect 132 0 131 0;
#X connect 133 0 136 0;
#X connect 134 0 51 0;
#X connect 135 0 134 0;
#X connect 136 0 135 0;
#X connect 137 0 132 0;
#X connect 138 0 125 0;
#X connect 152 0 154 0;
#X connect 153 0 152 0;
#X connect 154 0 32 0;
#X connect 155 0 69 0;
#X connect 155 0 159 0;
#X connect 155 1 0 0;
#X connect 155 1 9 0;
#X connect 155 1 14 0;
#X connect 155 1 19 0;
#X connect 155 2 0 0;
#X connect 155 2 9 0;
#X connect 155 2 14 0;
#X connect 155 2 19 0;
#X connect 158 0 0 0;
#X connect 158 0 9 0;
#X connect 158 0 14 1;
#X connect 158 0 19 0;
#X connect 159 0 46 0;
#X connect 159 0 51 0;
#X connect 159 0 51 1;
#X restore 116 -425 pd disco de acrecion;
#X obj 35 -366 dsp;
#X obj 35 -404 tgl 30 0 empty empty empty 17 7 0 10 -4034 -1 -1 1 1
;
#X floatatom 35 -317 5 0 0 0 - - -;
#X floatatom 50 -340 5 0 0 0 - - -;
#X connect 5 0 7 0;
#X connect 5 1 8 0;
#X connect 6 0 5 0;
